<svg width="80" height="80" viewBox="0 0 80 80" fill="none" xmlns="http://www.w3.org/2000/svg">
<g filter="url(#filter0_i_2_66)">
<rect width="80" height="80" rx="20" fill="#B60000"/>
<path d="M25.6 42.36C25.6 40.1467 25.8667 37.8667 26.4 35.52C26.96 33.1733 27.6133 31.1733 28.36 29.52C29.1067 27.84 29.88 26.4667 30.68 25.4C31.48 24.3067 32.1467 23.76 32.68 23.76C33.1333 23.76 33.5733 24.0667 34 24.68C32.3467 26.5467 31.0133 29.1467 30 32.48C28.9867 35.7867 28.48 39.08 28.48 42.36C28.48 45.96 29 49.3733 30.04 52.6C31.08 55.8267 32.4 58.36 34 60.2C33.5733 60.8133 33.1333 61.12 32.68 61.12C32.1733 61.12 31.52 60.5867 30.72 59.52C29.9467 58.48 29.1733 57.1333 28.4 55.48C27.6267 53.8267 26.96 51.8133 26.4 49.44C25.8667 47.04 25.6 44.68 25.6 42.36ZM54.1297 42.36C54.1297 44.68 53.8497 47.04 53.2897 49.44C52.7564 51.8133 52.103 53.8267 51.3297 55.48C50.5564 57.1333 49.7697 58.48 48.9697 59.52C48.1964 60.5867 47.5564 61.12 47.0497 61.12C46.5964 61.12 46.1564 60.8133 45.7297 60.2C47.3297 58.36 48.6497 55.8267 49.6897 52.6C50.7297 49.3733 51.2497 45.96 51.2497 42.36C51.2497 39.08 50.743 35.7867 49.7297 32.48C48.7164 29.1467 47.383 26.5467 45.7297 24.68C46.1564 24.0667 46.5964 23.76 47.0497 23.76C47.583 23.76 48.2497 24.3067 49.0497 25.4C49.8497 26.4667 50.623 27.84 51.3697 29.52C52.1164 31.1733 52.7564 33.1733 53.2897 35.52C53.8497 37.8667 54.1297 40.1467 54.1297 42.36Z" fill="white"/>
</g>
<defs>
<filter id="filter0_i_2_66" x="0" y="0" width="80" height="84" filterUnits="userSpaceOnUse" color-interpolation-filters="sRGB">
<feFlood flood-opacity="0" result="BackgroundImageFix"/>
<feBlend mode="normal" in="SourceGraphic" in2="BackgroundImageFix" result="shape"/>
<feColorMatrix in="SourceAlpha" type="matrix" values="0 0 0 0 0 0 0 0 0 0 0 0 0 0 0 0 0 0 127 0" result="hardAlpha"/>
<feOffset dy="4"/>
<feGaussianBlur stdDeviation="2"/>
<feComposite in2="hardAlpha" operator="arithmetic" k2="-1" k3="1"/>
<feColorMatrix type="matrix" values="0 0 0 0 0 0 0 0 0 0 0 0 0 0 0 0 0 0 0.25 0"/>
<feBlend mode="normal" in2="shape" result="effect1_innerShadow_2_66"/>
</filter>
</defs>
</svg>
