<svg width="80" height="80" viewBox="0 0 80 80" fill="none" xmlns="http://www.w3.org/2000/svg">
<g filter="url(#filter0_i_2_37)">
<rect width="80" height="80" rx="20" fill="#393939"/>
<path d="M32.632 48.664C35.3413 46.488 37.464 44.7067 39 43.32C40.536 41.912 41.8267 40.4507 42.872 38.936C43.9387 37.4 44.472 35.896 44.472 34.424C44.472 33.0373 44.1307 31.9493 43.448 31.16C42.7867 30.3493 41.7093 29.944 40.216 29.944C38.7653 29.944 37.6347 30.4027 36.824 31.32C36.0347 32.216 35.608 33.4213 35.544 34.936H32.728C32.8133 32.5467 33.5387 30.7013 34.904 29.4C36.2693 28.0987 38.0293 27.448 40.184 27.448C42.3813 27.448 44.12 28.056 45.4 29.272C46.7013 30.488 47.352 32.1627 47.352 34.296C47.352 36.0667 46.8187 37.7947 45.752 39.48C44.7067 41.144 43.512 42.616 42.168 43.896C40.824 45.1547 39.1067 46.6267 37.016 48.312H48.024V50.744H32.632V48.664Z" fill="white"/>
</g>
<defs>
<filter id="filter0_i_2_37" x="0" y="0" width="80" height="84" filterUnits="userSpaceOnUse" color-interpolation-filters="sRGB">
<feFlood flood-opacity="0" result="BackgroundImageFix"/>
<feBlend mode="normal" in="SourceGraphic" in2="BackgroundImageFix" result="shape"/>
<feColorMatrix in="SourceAlpha" type="matrix" values="0 0 0 0 0 0 0 0 0 0 0 0 0 0 0 0 0 0 127 0" result="hardAlpha"/>
<feOffset dy="4"/>
<feGaussianBlur stdDeviation="2"/>
<feComposite in2="hardAlpha" operator="arithmetic" k2="-1" k3="1"/>
<feColorMatrix type="matrix" values="0 0 0 0 0 0 0 0 0 0 0 0 0 0 0 0 0 0 0.25 0"/>
<feBlend mode="normal" in2="shape" result="effect1_innerShadow_2_37"/>
</filter>
</defs>
</svg>
