<svg width="80" height="80" viewBox="0 0 80 80" fill="none" xmlns="http://www.w3.org/2000/svg">
<g filter="url(#filter0_i_2_38)">
<rect width="80" height="80" rx="20" fill="#393939"/>
<path d="M32.92 34.688C33.0693 32.7253 33.8267 31.1893 35.192 30.08C36.5573 28.9707 38.328 28.416 40.504 28.416C41.9547 28.416 43.2027 28.6827 44.248 29.216C45.3147 29.728 46.1147 30.432 46.648 31.328C47.2027 32.224 47.48 33.2373 47.48 34.368C47.48 35.6907 47.096 36.832 46.328 37.792C45.5813 38.752 44.6 39.3707 43.384 39.648V39.808C44.7707 40.1493 45.8693 40.8213 46.68 41.824C47.4907 42.8267 47.896 44.1387 47.896 45.76C47.896 46.976 47.6187 48.0747 47.064 49.056C46.5093 50.016 45.6773 50.7733 44.568 51.328C43.4587 51.8827 42.1253 52.16 40.568 52.16C38.3067 52.16 36.4507 51.5733 35 50.4C33.5493 49.2053 32.7387 47.52 32.568 45.344H35.384C35.5333 46.624 36.056 47.6693 36.952 48.48C37.848 49.2907 39.0427 49.696 40.536 49.696C42.0293 49.696 43.16 49.312 43.928 48.544C44.7173 47.7547 45.112 46.7413 45.112 45.504C45.112 43.904 44.5787 42.752 43.512 42.048C42.4453 41.344 40.8347 40.992 38.68 40.992H37.944V38.56H38.712C40.6747 38.5387 42.1573 38.2187 43.16 37.6C44.1627 36.96 44.664 35.9787 44.664 34.656C44.664 33.5253 44.2907 32.6187 43.544 31.936C42.8187 31.2533 41.7733 30.912 40.408 30.912C39.0853 30.912 38.0187 31.2533 37.208 31.936C36.3973 32.6187 35.9173 33.536 35.768 34.688H32.92Z" fill="white"/>
</g>
<defs>
<filter id="filter0_i_2_38" x="0" y="0" width="80" height="84" filterUnits="userSpaceOnUse" color-interpolation-filters="sRGB">
<feFlood flood-opacity="0" result="BackgroundImageFix"/>
<feBlend mode="normal" in="SourceGraphic" in2="BackgroundImageFix" result="shape"/>
<feColorMatrix in="SourceAlpha" type="matrix" values="0 0 0 0 0 0 0 0 0 0 0 0 0 0 0 0 0 0 127 0" result="hardAlpha"/>
<feOffset dy="4"/>
<feGaussianBlur stdDeviation="2"/>
<feComposite in2="hardAlpha" operator="arithmetic" k2="-1" k3="1"/>
<feColorMatrix type="matrix" values="0 0 0 0 0 0 0 0 0 0 0 0 0 0 0 0 0 0 0.25 0"/>
<feBlend mode="normal" in2="shape" result="effect1_innerShadow_2_38"/>
</filter>
</defs>
</svg>
