<svg width="80" height="80" viewBox="0 0 80 80" fill="none" xmlns="http://www.w3.org/2000/svg">
<g filter="url(#filter0_i_2_40)">
<rect width="80" height="80" rx="20" fill="#393939"/>
<path d="M46.736 31.392H35.504V38.688C35.9947 38.0053 36.72 37.4507 37.68 37.024C38.64 36.576 39.6747 36.352 40.784 36.352C42.5547 36.352 43.9947 36.7253 45.104 37.472C46.2133 38.1973 47.0027 39.1467 47.472 40.32C47.9627 41.472 48.208 42.6987 48.208 44C48.208 45.536 47.92 46.912 47.344 48.128C46.768 49.344 45.8827 50.304 44.688 51.008C43.5147 51.712 42.0533 52.064 40.304 52.064C38.064 52.064 36.2507 51.488 34.864 50.336C33.4773 49.184 32.6347 47.648 32.336 45.728H35.184C35.4613 46.944 36.048 47.8933 36.944 48.576C37.84 49.2587 38.9707 49.6 40.336 49.6C42.0213 49.6 43.2907 49.0987 44.144 48.096C44.9973 47.072 45.424 45.728 45.424 44.064C45.424 42.4 44.9973 41.12 44.144 40.224C43.2907 39.3067 42.032 38.848 40.368 38.848C39.2373 38.848 38.2453 39.1253 37.392 39.68C36.56 40.2133 35.952 40.9493 35.568 41.888H32.816V28.832H46.736V31.392Z" fill="white"/>
</g>
<defs>
<filter id="filter0_i_2_40" x="0" y="0" width="80" height="84" filterUnits="userSpaceOnUse" color-interpolation-filters="sRGB">
<feFlood flood-opacity="0" result="BackgroundImageFix"/>
<feBlend mode="normal" in="SourceGraphic" in2="BackgroundImageFix" result="shape"/>
<feColorMatrix in="SourceAlpha" type="matrix" values="0 0 0 0 0 0 0 0 0 0 0 0 0 0 0 0 0 0 127 0" result="hardAlpha"/>
<feOffset dy="4"/>
<feGaussianBlur stdDeviation="2"/>
<feComposite in2="hardAlpha" operator="arithmetic" k2="-1" k3="1"/>
<feColorMatrix type="matrix" values="0 0 0 0 0 0 0 0 0 0 0 0 0 0 0 0 0 0 0.25 0"/>
<feBlend mode="normal" in2="shape" result="effect1_innerShadow_2_40"/>
</filter>
</defs>
</svg>
