<svg width="80" height="80" viewBox="0 0 80 80" fill="none" xmlns="http://www.w3.org/2000/svg">
<g filter="url(#filter0_i_2_46)">
<rect width="80" height="80" rx="20" fill="#393939"/>
<path d="M44.88 34.368C44.4107 32 42.9493 30.816 40.496 30.816C38.5973 30.816 37.1787 31.552 36.24 33.024C35.3013 34.4747 34.8427 36.8747 34.864 40.224C35.3547 39.1147 36.1653 38.2507 37.296 37.632C38.448 36.992 39.728 36.672 41.136 36.672C43.3333 36.672 45.0827 37.3547 46.384 38.72C47.7067 40.0853 48.368 41.9733 48.368 44.384C48.368 45.8347 48.08 47.136 47.504 48.288C46.9493 49.44 46.096 50.3573 44.944 51.04C43.8133 51.7227 42.4373 52.064 40.816 52.064C38.6187 52.064 36.9013 51.5733 35.664 50.592C34.4267 49.6107 33.5627 48.256 33.072 46.528C32.5813 44.8 32.336 42.6667 32.336 40.128C32.336 32.2987 35.0667 28.384 40.528 28.384C42.6187 28.384 44.2613 28.9493 45.456 30.08C46.6507 31.2107 47.3547 32.64 47.568 34.368H44.88ZM40.528 39.136C39.6107 39.136 38.7467 39.328 37.936 39.712C37.1253 40.0747 36.464 40.64 35.952 41.408C35.4613 42.1547 35.216 43.072 35.216 44.16C35.216 45.7813 35.6853 47.104 36.624 48.128C37.5627 49.1307 38.9067 49.632 40.656 49.632C42.1493 49.632 43.3333 49.1733 44.208 48.256C45.104 47.3173 45.552 46.0587 45.552 44.48C45.552 42.816 45.1253 41.5147 44.272 40.576C43.4187 39.616 42.1707 39.136 40.528 39.136Z" fill="white"/>
</g>
<defs>
<filter id="filter0_i_2_46" x="0" y="0" width="80" height="84" filterUnits="userSpaceOnUse" color-interpolation-filters="sRGB">
<feFlood flood-opacity="0" result="BackgroundImageFix"/>
<feBlend mode="normal" in="SourceGraphic" in2="BackgroundImageFix" result="shape"/>
<feColorMatrix in="SourceAlpha" type="matrix" values="0 0 0 0 0 0 0 0 0 0 0 0 0 0 0 0 0 0 127 0" result="hardAlpha"/>
<feOffset dy="4"/>
<feGaussianBlur stdDeviation="2"/>
<feComposite in2="hardAlpha" operator="arithmetic" k2="-1" k3="1"/>
<feColorMatrix type="matrix" values="0 0 0 0 0 0 0 0 0 0 0 0 0 0 0 0 0 0 0.25 0"/>
<feBlend mode="normal" in2="shape" result="effect1_innerShadow_2_46"/>
</filter>
</defs>
</svg>
