<svg width="80" height="80" viewBox="0 0 80 80" fill="none" xmlns="http://www.w3.org/2000/svg">
<g filter="url(#filter0_i_2_48)">
<rect width="80" height="80" rx="20" fill="#393939"/>
<path d="M36.208 38.968C35.0133 38.4987 34.096 37.816 33.456 36.92C32.816 36.024 32.496 34.936 32.496 33.656C32.496 32.504 32.784 31.4693 33.36 30.552C33.936 29.6133 34.7893 28.8773 35.92 28.344C37.072 27.7893 38.4587 27.512 40.08 27.512C41.7013 27.512 43.0773 27.7893 44.208 28.344C45.36 28.8773 46.224 29.6133 46.8 30.552C47.3973 31.4693 47.696 32.504 47.696 33.656C47.696 34.8933 47.3653 35.9813 46.704 36.92C46.0427 37.8373 45.136 38.52 43.984 38.968C45.3067 39.3733 46.352 40.088 47.12 41.112C47.9093 42.1147 48.304 43.3307 48.304 44.76C48.304 46.1467 47.9627 47.3627 47.28 48.408C46.5973 49.432 45.6267 50.232 44.368 50.808C43.1307 51.3627 41.7013 51.64 40.08 51.64C38.4587 51.64 37.0293 51.3627 35.792 50.808C34.576 50.232 33.6267 49.432 32.944 48.408C32.2613 47.3627 31.92 46.1467 31.92 44.76C31.92 43.3307 32.304 42.104 33.072 41.08C33.84 40.056 34.8853 39.352 36.208 38.968ZM44.88 34.008C44.88 32.7067 44.4533 31.704 43.6 31C42.7467 30.296 41.5733 29.944 40.08 29.944C38.608 29.944 37.4453 30.296 36.592 31C35.7387 31.704 35.312 32.7173 35.312 34.04C35.312 35.2347 35.7493 36.1947 36.624 36.92C37.52 37.6453 38.672 38.008 40.08 38.008C41.5093 38.008 42.6613 37.6453 43.536 36.92C44.432 36.1733 44.88 35.2027 44.88 34.008ZM40.08 40.248C38.5013 40.248 37.2107 40.6213 36.208 41.368C35.2053 42.0933 34.704 43.192 34.704 44.664C34.704 46.0293 35.184 47.128 36.144 47.96C37.1253 48.792 38.4373 49.208 40.08 49.208C41.7227 49.208 43.024 48.792 43.984 47.96C44.944 47.128 45.424 46.0293 45.424 44.664C45.424 43.2347 44.9333 42.1467 43.952 41.4C42.9707 40.632 41.68 40.248 40.08 40.248Z" fill="white"/>
</g>
<defs>
<filter id="filter0_i_2_48" x="0" y="0" width="80" height="84" filterUnits="userSpaceOnUse" color-interpolation-filters="sRGB">
<feFlood flood-opacity="0" result="BackgroundImageFix"/>
<feBlend mode="normal" in="SourceGraphic" in2="BackgroundImageFix" result="shape"/>
<feColorMatrix in="SourceAlpha" type="matrix" values="0 0 0 0 0 0 0 0 0 0 0 0 0 0 0 0 0 0 127 0" result="hardAlpha"/>
<feOffset dy="4"/>
<feGaussianBlur stdDeviation="2"/>
<feComposite in2="hardAlpha" operator="arithmetic" k2="-1" k3="1"/>
<feColorMatrix type="matrix" values="0 0 0 0 0 0 0 0 0 0 0 0 0 0 0 0 0 0 0.25 0"/>
<feBlend mode="normal" in2="shape" result="effect1_innerShadow_2_48"/>
</filter>
</defs>
</svg>
