<svg width="80" height="80" viewBox="0 0 80 80" fill="none" xmlns="http://www.w3.org/2000/svg">
<g filter="url(#filter0_i_2_49)">
<rect width="80" height="80" rx="20" fill="#393939"/>
<path d="M35.728 44.792C35.9413 46.008 36.432 46.9467 37.2 47.608C37.9893 48.2693 39.0453 48.6 40.368 48.6C42.1387 48.6 43.44 47.9067 44.272 46.52C45.1253 45.1333 45.5307 42.7973 45.488 39.512C45.04 40.472 44.2933 41.2293 43.248 41.784C42.2027 42.3173 41.04 42.584 39.76 42.584C38.3307 42.584 37.0507 42.296 35.92 41.72C34.8107 41.1227 33.936 40.2587 33.296 39.128C32.656 37.9973 32.336 36.632 32.336 35.032C32.336 32.7493 32.9973 30.9147 34.32 29.528C35.6427 28.12 37.52 27.416 39.952 27.416C42.9387 27.416 45.0293 28.3867 46.224 30.328C47.44 32.2693 48.048 35.16 48.048 39C48.048 41.688 47.8027 43.9067 47.312 45.656C46.8427 47.4053 46.032 48.7387 44.88 49.656C43.7493 50.5733 42.192 51.032 40.208 51.032C38.032 51.032 36.336 50.4453 35.12 49.272C33.904 48.0987 33.2107 46.6053 33.04 44.792H35.728ZM40.24 40.12C41.6693 40.12 42.8427 39.6827 43.76 38.808C44.6773 37.912 45.136 36.7067 45.136 35.192C45.136 33.592 44.688 32.3013 43.792 31.32C42.896 30.3387 41.6373 29.848 40.016 29.848C38.5227 29.848 37.328 30.3173 36.432 31.256C35.5573 32.1947 35.12 33.432 35.12 34.968C35.12 36.5253 35.5573 37.7733 36.432 38.712C37.3067 39.6507 38.576 40.12 40.24 40.12Z" fill="white"/>
</g>
<defs>
<filter id="filter0_i_2_49" x="0" y="0" width="80" height="84" filterUnits="userSpaceOnUse" color-interpolation-filters="sRGB">
<feFlood flood-opacity="0" result="BackgroundImageFix"/>
<feBlend mode="normal" in="SourceGraphic" in2="BackgroundImageFix" result="shape"/>
<feColorMatrix in="SourceAlpha" type="matrix" values="0 0 0 0 0 0 0 0 0 0 0 0 0 0 0 0 0 0 127 0" result="hardAlpha"/>
<feOffset dy="4"/>
<feGaussianBlur stdDeviation="2"/>
<feComposite in2="hardAlpha" operator="arithmetic" k2="-1" k3="1"/>
<feColorMatrix type="matrix" values="0 0 0 0 0 0 0 0 0 0 0 0 0 0 0 0 0 0 0.25 0"/>
<feBlend mode="normal" in2="shape" result="effect1_innerShadow_2_49"/>
</filter>
</defs>
</svg>
