<svg width="80" height="80" viewBox="0 0 80 80" fill="none" xmlns="http://www.w3.org/2000/svg">
<g filter="url(#filter0_i_2_68)">
<rect width="80" height="80" rx="20" fill="#B60000"/>
<path d="M50.76 23L55.54 34.5C55.1 36.36 54.54 37.64 54 38.4C53.34 39.36 52.88 39.5 52.38 39.5V42.5C53.88 42.5 55.48 41.7 56.48 40.12C59.74 34.88 64 23 64 23H60.76L57.38 31.1L54 23H50.76M26.84 34.18L24 37L33.58 46.58L24 56.18L26.82 59L36.42 49.42L46 59L48.82 56.18L39.24 46.58L48.82 37L46 34.18L36.42 43.76L26.82 34.18H26.84V34.18Z" fill="white"/>
</g>
<defs>
<filter id="filter0_i_2_68" x="0" y="0" width="80" height="84" filterUnits="userSpaceOnUse" color-interpolation-filters="sRGB">
<feFlood flood-opacity="0" result="BackgroundImageFix"/>
<feBlend mode="normal" in="SourceGraphic" in2="BackgroundImageFix" result="shape"/>
<feColorMatrix in="SourceAlpha" type="matrix" values="0 0 0 0 0 0 0 0 0 0 0 0 0 0 0 0 0 0 127 0" result="hardAlpha"/>
<feOffset dy="4"/>
<feGaussianBlur stdDeviation="2"/>
<feComposite in2="hardAlpha" operator="arithmetic" k2="-1" k3="1"/>
<feColorMatrix type="matrix" values="0 0 0 0 0 0 0 0 0 0 0 0 0 0 0 0 0 0 0.25 0"/>
<feBlend mode="normal" in2="shape" result="effect1_innerShadow_2_68"/>
</filter>
</defs>
</svg>
