<svg width="80" height="80" viewBox="0 0 80 80" fill="none" xmlns="http://www.w3.org/2000/svg">
<g filter="url(#filter0_i_2_64)">
<rect width="80" height="80" rx="20" fill="#B60000"/>
<path d="M49.672 50.568C51.08 51.144 51.784 51.928 51.784 52.92C51.784 54.072 50.872 55.128 49.048 56.088C47.224 57.016 44.968 57.48 42.28 57.48C37.768 57.48 34.152 55.976 31.432 52.968C28.712 49.928 27.352 45.96 27.352 41.064C27.352 35.944 28.712 31.944 31.432 29.064C34.152 26.152 37.832 24.696 42.472 24.696C44.968 24.696 47.064 25.208 48.76 26.232C50.456 27.224 51.304 28.456 51.304 29.928C51.304 31.24 50.392 32.04 48.568 32.328C47.96 30.76 47 29.592 45.688 28.824C44.376 28.024 42.984 27.624 41.512 27.624C38.504 27.624 36.04 28.824 34.12 31.224C32.232 33.592 31.288 36.552 31.288 40.104C31.288 44.2 32.248 47.64 34.168 50.424C36.088 53.176 38.776 54.552 42.232 54.552C43.768 54.552 45.192 54.216 46.504 53.544C47.848 52.872 48.904 51.88 49.672 50.568Z" fill="white"/>
</g>
<defs>
<filter id="filter0_i_2_64" x="0" y="0" width="80" height="84" filterUnits="userSpaceOnUse" color-interpolation-filters="sRGB">
<feFlood flood-opacity="0" result="BackgroundImageFix"/>
<feBlend mode="normal" in="SourceGraphic" in2="BackgroundImageFix" result="shape"/>
<feColorMatrix in="SourceAlpha" type="matrix" values="0 0 0 0 0 0 0 0 0 0 0 0 0 0 0 0 0 0 127 0" result="hardAlpha"/>
<feOffset dy="4"/>
<feGaussianBlur stdDeviation="2"/>
<feComposite in2="hardAlpha" operator="arithmetic" k2="-1" k3="1"/>
<feColorMatrix type="matrix" values="0 0 0 0 0 0 0 0 0 0 0 0 0 0 0 0 0 0 0.25 0"/>
<feBlend mode="normal" in2="shape" result="effect1_innerShadow_2_64"/>
</filter>
</defs>
</svg>
