<svg width="36" height="32" viewBox="0 0 36 32" fill="none" xmlns="http://www.w3.org/2000/svg">
<path d="M36 8C36 5.79375 34.2062 4 32 4H12.8313C11.7688 4 10.75 4.41875 10 5.16875L0.5875 14.5875C0.2125 14.9625 0 15.4688 0 16C0 16.5312 0.2125 17.0375 0.5875 17.4125L10 26.8312C10.75 27.5812 11.7688 28 12.8313 28H32C34.2062 28 36 26.2062 36 24V8ZM16.9375 10.9375C17.525 10.35 18.475 10.35 19.0562 10.9375L21.9937 13.875L24.9312 10.9375C25.5187 10.35 26.4687 10.35 27.05 10.9375C27.6312 11.525 27.6375 12.475 27.05 13.0562L24.1125 15.9937L27.05 18.9312C27.6375 19.5187 27.6375 20.4687 27.05 21.05C26.4625 21.6312 25.5125 21.6375 24.9312 21.05L21.9937 18.1125L19.0562 21.05C18.4687 21.6375 17.5188 21.6375 16.9375 21.05C16.3562 20.4625 16.35 19.5125 16.9375 18.9312L19.875 15.9937L16.9375 13.0562C16.35 12.4687 16.35 11.5188 16.9375 10.9375V10.9375Z" fill="#292929"/>
</svg>
