<svg width="100" height="40" viewBox="0 0 100 40" fill="none" xmlns="http://www.w3.org/2000/svg">
<rect width="83.3333" height="40" rx="20" fill="#656565"/>
<rect x="50" width="50" height="40" rx="20" fill="#B60000"/>
<rect x="50" width="19.1667" height="40" fill="#B60000"/>
<path d="M84.9275 21.3062C84.0804 21.5312 83.2077 21.6451 82.3312 21.645C79.6625 21.645 77.1562 20.6075 75.2737 18.725C74.0376 17.4817 73.1488 15.9361 72.6961 14.2422C72.2435 12.5484 72.2426 10.7655 72.6937 9.07124C72.7501 8.8594 72.7497 8.63648 72.6927 8.42482C72.6357 8.21317 72.524 8.02023 72.3689 7.86536C72.2138 7.71049 72.0207 7.59914 71.8089 7.54247C71.5972 7.4858 71.3742 7.4858 71.1625 7.54249C69.0414 8.10772 67.1063 9.22077 65.5512 10.77C60.6787 15.6425 60.6787 23.5737 65.5512 28.4487C66.7094 29.6134 68.087 30.5367 69.6044 31.1654C71.1218 31.794 72.7488 32.1155 74.3912 32.1112C76.0333 32.1158 77.6599 31.7946 79.1769 31.1661C80.6939 30.5377 82.0711 29.6145 83.2287 28.45C84.7791 26.8946 85.8927 24.9585 86.4575 22.8362C86.5136 22.6245 86.5131 22.4017 86.4562 22.1902C86.3992 21.9787 86.2876 21.7859 86.1328 21.631C85.9779 21.4761 85.785 21.3646 85.5735 21.3076C85.362 21.2506 85.1392 21.2501 84.9275 21.3062V21.3062ZM81.4625 26.6825C80.5362 27.6139 79.4344 28.3523 78.2208 28.855C77.0073 29.3577 75.7061 29.6147 74.3925 29.6112C73.0785 29.6145 71.7769 29.3572 70.5629 28.8543C69.3489 28.3514 68.2467 27.6128 67.32 26.6812C63.4225 22.7825 63.4225 16.4375 67.32 12.5387C68.0731 11.7864 68.9426 11.1605 69.895 10.685C69.7556 12.4838 70.0062 14.2915 70.6297 15.9846C71.2531 17.6777 72.2348 19.2162 73.5075 20.495C74.7835 21.7717 76.3216 22.7561 78.0153 23.38C79.7091 24.004 81.5182 24.2526 83.3175 24.1087C82.8394 25.0595 82.2133 25.9282 81.4625 26.6825V26.6825Z" fill="white"/>
<path d="M28 26.0938C31.3655 26.0938 34.0938 23.3655 34.0938 20C34.0938 16.6345 31.3655 13.9062 28 13.9062C24.6345 13.9062 21.9062 16.6345 21.9062 20C21.9062 23.3655 24.6345 26.0938 28 26.0938Z" stroke="black" stroke-width="2.25" stroke-linecap="round" stroke-linejoin="round"/>
<path d="M18.1562 29.8438L19.0938 28.9062M36.9062 28.9062L37.8438 29.8438M36.9062 11.0938L37.8438 10.1562M19.0938 11.0938L18.1562 10.1562M17.2188 20H15.3438M40.6562 20H38.7812M28 30.7812V32.6562M28 7.34375V9.21875" stroke="black" stroke-width="2.25" stroke-linecap="round" stroke-linejoin="round"/>
</svg>
