<svg width="80" height="80" viewBox="0 0 80 80" fill="none" xmlns="http://www.w3.org/2000/svg">
<g filter="url(#filter0_i_2_28)">
<rect width="80" height="80" rx="20" fill="#393939"/>
<path d="M47.888 50.36C46.376 50.36 45.176 49.892 44.288 48.956C43.4 47.996 42.956 46.712 42.956 45.104C42.956 43.496 43.4 42.224 44.288 41.288C45.176 40.328 46.376 39.848 47.888 39.848C49.376 39.848 50.564 40.328 51.452 41.288C52.34 42.224 52.784 43.496 52.784 45.104C52.784 46.712 52.34 47.996 51.452 48.956C50.564 49.892 49.376 50.36 47.888 50.36ZM50.624 45.32C50.624 44.312 50.384 43.412 49.904 42.62C49.424 41.828 48.752 41.432 47.888 41.432C47.072 41.432 46.388 41.744 45.836 42.368C45.308 42.992 45.044 43.772 45.044 44.708C45.044 45.764 45.284 46.7 45.764 47.516C46.268 48.332 46.964 48.74 47.852 48.74C48.692 48.74 49.364 48.416 49.868 47.768C50.372 47.12 50.624 46.304 50.624 45.32ZM32.516 49.424L42.02 37.292C44.204 34.508 45.884 32.264 47.06 30.56C47.42 30.608 47.756 30.764 48.068 31.028C48.404 31.268 48.572 31.52 48.572 31.784C48.572 32 48.452 32.276 48.212 32.612L38.708 44.78C36.62 47.444 34.94 49.688 33.668 51.512C32.66 51.2 32.156 50.78 32.156 50.252C32.156 50.012 32.276 49.736 32.516 49.424ZM32.732 42.476C31.22 42.476 30.02 42.008 29.132 41.072C28.244 40.112 27.8 38.828 27.8 37.22C27.8 35.612 28.244 34.34 29.132 33.404C30.02 32.444 31.22 31.964 32.732 31.964C34.22 31.964 35.408 32.444 36.296 33.404C37.184 34.34 37.628 35.612 37.628 37.22C37.628 38.828 37.184 40.112 36.296 41.072C35.408 42.008 34.22 42.476 32.732 42.476ZM35.468 37.436C35.468 36.428 35.228 35.528 34.748 34.736C34.268 33.944 33.596 33.548 32.732 33.548C31.916 33.548 31.232 33.86 30.68 34.484C30.152 35.108 29.888 35.888 29.888 36.824C29.888 37.88 30.128 38.816 30.608 39.632C31.112 40.448 31.808 40.856 32.696 40.856C33.536 40.856 34.208 40.532 34.712 39.884C35.216 39.236 35.468 38.42 35.468 37.436Z" fill="white"/>
</g>
<defs>
<filter id="filter0_i_2_28" x="0" y="0" width="80" height="84" filterUnits="userSpaceOnUse" color-interpolation-filters="sRGB">
<feFlood flood-opacity="0" result="BackgroundImageFix"/>
<feBlend mode="normal" in="SourceGraphic" in2="BackgroundImageFix" result="shape"/>
<feColorMatrix in="SourceAlpha" type="matrix" values="0 0 0 0 0 0 0 0 0 0 0 0 0 0 0 0 0 0 127 0" result="hardAlpha"/>
<feOffset dy="4"/>
<feGaussianBlur stdDeviation="2"/>
<feComposite in2="hardAlpha" operator="arithmetic" k2="-1" k3="1"/>
<feColorMatrix type="matrix" values="0 0 0 0 0 0 0 0 0 0 0 0 0 0 0 0 0 0 0.25 0"/>
<feBlend mode="normal" in2="shape" result="effect1_innerShadow_2_28"/>
</filter>
</defs>
</svg>
