<svg width="80" height="90" viewBox="0 0 80 90" fill="none" xmlns="http://www.w3.org/2000/svg">
<g filter="url(#filter0_i_2_30)">
<rect y="10" width="80" height="80" rx="20" fill="#393939"/>
<path d="M41.088 53.288C40.256 53.288 39.552 53 38.976 52.424C38.4 51.848 38.112 51.144 38.112 50.312C38.112 49.48 38.4 48.776 38.976 48.2C39.552 47.624 40.256 47.336 41.088 47.336C41.888 47.336 42.56 47.624 43.104 48.2C43.68 48.776 43.968 49.48 43.968 50.312C43.968 51.144 43.68 51.848 43.104 52.424C42.56 53 41.888 53.288 41.088 53.288Z" fill="white"/>
</g>
<defs>
<filter id="filter0_i_2_30" x="0" y="10" width="80" height="84" filterUnits="userSpaceOnUse" color-interpolation-filters="sRGB">
<feFlood flood-opacity="0" result="BackgroundImageFix"/>
<feBlend mode="normal" in="SourceGraphic" in2="BackgroundImageFix" result="shape"/>
<feColorMatrix in="SourceAlpha" type="matrix" values="0 0 0 0 0 0 0 0 0 0 0 0 0 0 0 0 0 0 127 0" result="hardAlpha"/>
<feOffset dy="4"/>
<feGaussianBlur stdDeviation="2"/>
<feComposite in2="hardAlpha" operator="arithmetic" k2="-1" k3="1"/>
<feColorMatrix type="matrix" values="0 0 0 0 0 0 0 0 0 0 0 0 0 0 0 0 0 0 0.25 0"/>
<feBlend mode="normal" in2="shape" result="effect1_innerShadow_2_30"/>
</filter>
</defs>
</svg>
