<svg width="80" height="80" viewBox="0 0 80 80" fill="none" xmlns="http://www.w3.org/2000/svg">
<g filter="url(#filter0_i_2_59)">
<rect width="80" height="80" rx="20" fill="#B60000"/>
<path d="M29.488 50.416C29.488 48.656 32.448 44.896 38.368 39.136C34.048 33.152 31.168 29.616 29.728 28.528C30.752 27.408 31.824 26.848 32.944 26.848C33.744 26.848 34.544 27.392 35.344 28.48C36.4 29.792 38.176 32.464 40.672 36.496C41.984 34.992 43.168 33.328 44.224 31.504C45.312 29.648 45.984 28.096 46.24 26.848C48.512 27.136 49.648 27.84 49.648 28.96C49.648 29.792 48.864 31.216 47.296 33.232C45.76 35.216 44.064 37.136 42.208 38.992C46.592 45.648 49.696 49.552 51.52 50.704C50.496 51.792 49.488 52.336 48.496 52.336C47.632 52.336 46.848 51.872 46.144 50.944C44.288 48.608 42.192 45.52 39.856 41.68C38.32 43.344 36.864 45.2 35.488 47.248C34.112 49.264 33.232 50.96 32.848 52.336C30.608 52.144 29.488 51.504 29.488 50.416Z" fill="white"/>
</g>
<defs>
<filter id="filter0_i_2_59" x="0" y="0" width="80" height="84" filterUnits="userSpaceOnUse" color-interpolation-filters="sRGB">
<feFlood flood-opacity="0" result="BackgroundImageFix"/>
<feBlend mode="normal" in="SourceGraphic" in2="BackgroundImageFix" result="shape"/>
<feColorMatrix in="SourceAlpha" type="matrix" values="0 0 0 0 0 0 0 0 0 0 0 0 0 0 0 0 0 0 127 0" result="hardAlpha"/>
<feOffset dy="4"/>
<feGaussianBlur stdDeviation="2"/>
<feComposite in2="hardAlpha" operator="arithmetic" k2="-1" k3="1"/>
<feColorMatrix type="matrix" values="0 0 0 0 0 0 0 0 0 0 0 0 0 0 0 0 0 0 0.25 0"/>
<feBlend mode="normal" in2="shape" result="effect1_innerShadow_2_59"/>
</filter>
</defs>
</svg>
