<svg width="80" height="83" viewBox="0 0 80 83" fill="none" xmlns="http://www.w3.org/2000/svg">
<g filter="url(#filter0_i_2_62)">
<rect y="3" width="80" height="80" rx="20" fill="#B60000"/>
<path d="M52.824 45.488C52.824 46.256 52.6107 46.896 52.184 47.408C51.7573 47.92 51.2027 48.176 50.52 48.176C49.8373 48.176 48.3013 48.0907 45.912 47.92C43.5653 47.7493 41.7733 47.664 40.536 47.664C35.672 47.664 31.3627 47.8347 27.608 48.176C27.48 47.536 27.416 46.896 27.416 46.256C27.416 45.5733 27.608 44.9547 27.992 44.4C28.376 43.8453 28.952 43.568 29.72 43.568C29.848 43.568 31.192 43.6533 33.752 43.824C36.312 43.952 38.5307 44.016 40.408 44.016C45.9547 44.016 50.0293 43.8667 52.632 43.568C52.76 43.952 52.824 44.592 52.824 45.488ZM42.776 37.488C42.136 38.1707 41.3253 38.512 40.344 38.512C39.3627 38.512 38.5307 38.1707 37.848 37.488C37.1653 36.8053 36.824 35.9307 36.824 34.864C36.824 33.84 37.1653 32.9867 37.848 32.304C38.5307 31.5787 39.3627 31.216 40.344 31.216C41.3253 31.216 42.136 31.5787 42.776 32.304C43.4587 32.9867 43.8 33.84 43.8 34.864C43.8 35.9307 43.4587 36.8053 42.776 37.488ZM42.776 59.504C42.136 60.1867 41.3253 60.528 40.344 60.528C39.3627 60.528 38.5307 60.1867 37.848 59.504C37.1653 58.8213 36.824 57.9467 36.824 56.88C36.824 55.856 37.1653 55.0027 37.848 54.32C38.5307 53.5947 39.3627 53.232 40.344 53.232C41.3253 53.232 42.136 53.5947 42.776 54.32C43.4587 55.0027 43.8 55.856 43.8 56.88C43.8 57.9467 43.4587 58.8213 42.776 59.504Z" fill="white"/>
</g>
<defs>
<filter id="filter0_i_2_62" x="0" y="3" width="80" height="84" filterUnits="userSpaceOnUse" color-interpolation-filters="sRGB">
<feFlood flood-opacity="0" result="BackgroundImageFix"/>
<feBlend mode="normal" in="SourceGraphic" in2="BackgroundImageFix" result="shape"/>
<feColorMatrix in="SourceAlpha" type="matrix" values="0 0 0 0 0 0 0 0 0 0 0 0 0 0 0 0 0 0 127 0" result="hardAlpha"/>
<feOffset dy="4"/>
<feGaussianBlur stdDeviation="2"/>
<feComposite in2="hardAlpha" operator="arithmetic" k2="-1" k3="1"/>
<feColorMatrix type="matrix" values="0 0 0 0 0 0 0 0 0 0 0 0 0 0 0 0 0 0 0.25 0"/>
<feBlend mode="normal" in2="shape" result="effect1_innerShadow_2_62"/>
</filter>
</defs>
</svg>
