<svg width="170" height="73" viewBox="0 0 170 73" fill="none" xmlns="http://www.w3.org/2000/svg">
<rect y="6" width="169.65" height="67" rx="5" fill="#FF0000"/>
<rect width="169.648" height="68" rx="5" fill="#818181"/>
<path d="M35.6262 11.615C36.0062 11.675 36.3512 11.83 36.6612 12.08C36.9812 12.33 37.2312 12.64 37.4112 13.01C37.6012 13.38 37.6962 13.775 37.6962 14.195C37.6962 14.725 37.5612 15.205 37.2912 15.635C37.0212 16.055 36.6262 16.39 36.1062 16.64C35.5962 16.88 34.9912 17 34.2912 17H30.3912V6.545H34.1412C34.8512 6.545 35.4562 6.665 35.9562 6.905C36.4562 7.135 36.8312 7.45 37.0812 7.85C37.3312 8.25 37.4562 8.7 37.4562 9.2C37.4562 9.82 37.2862 10.335 36.9462 10.745C36.6162 11.145 36.1762 11.435 35.6262 11.615ZM31.7562 11.06H34.0512C34.6912 11.06 35.1862 10.91 35.5362 10.61C35.8862 10.31 36.0612 9.895 36.0612 9.365C36.0612 8.835 35.8862 8.42 35.5362 8.12C35.1862 7.82 34.6812 7.67 34.0212 7.67H31.7562V11.06ZM34.1712 15.875C34.8512 15.875 35.3812 15.715 35.7612 15.395C36.1412 15.075 36.3312 14.63 36.3312 14.06C36.3312 13.48 36.1312 13.025 35.7312 12.695C35.3312 12.355 34.7962 12.185 34.1262 12.185H31.7562V15.875H34.1712ZM40.9555 10.115C41.1955 9.645 41.5355 9.28 41.9755 9.02C42.4255 8.76 42.9705 8.63 43.6105 8.63V10.04H43.2505C41.7205 10.04 40.9555 10.87 40.9555 12.53V17H39.5905V8.78H40.9555V10.115ZM44.6762 12.86C44.6762 12.02 44.8462 11.285 45.1862 10.655C45.5262 10.015 45.9912 9.52 46.5812 9.17C47.1812 8.82 47.8462 8.645 48.5762 8.645C49.2962 8.645 49.9212 8.8 50.4512 9.11C50.9812 9.42 51.3762 9.81 51.6362 10.28V8.78H53.0162V17H51.6362V15.47C51.3662 15.95 50.9612 16.35 50.4212 16.67C49.8912 16.98 49.2712 17.135 48.5612 17.135C47.8312 17.135 47.1712 16.955 46.5812 16.595C45.9912 16.235 45.5262 15.73 45.1862 15.08C44.8462 14.43 44.6762 13.69 44.6762 12.86ZM51.6362 12.875C51.6362 12.255 51.5112 11.715 51.2612 11.255C51.0112 10.795 50.6712 10.445 50.2412 10.205C49.8212 9.955 49.3562 9.83 48.8462 9.83C48.3362 9.83 47.8712 9.95 47.4512 10.19C47.0312 10.43 46.6962 10.78 46.4462 11.24C46.1962 11.7 46.0712 12.24 46.0712 12.86C46.0712 13.49 46.1962 14.04 46.4462 14.51C46.6962 14.97 47.0312 15.325 47.4512 15.575C47.8712 15.815 48.3362 15.935 48.8462 15.935C49.3562 15.935 49.8212 15.815 50.2412 15.575C50.6712 15.325 51.0112 14.97 51.2612 14.51C51.5112 14.04 51.6362 13.495 51.6362 12.875ZM59.3279 8.63C60.3279 8.63 61.1379 8.935 61.7579 9.545C62.3779 10.145 62.6879 11.015 62.6879 12.155V17H61.3379V12.35C61.3379 11.53 61.1329 10.905 60.7229 10.475C60.3129 10.035 59.7529 9.815 59.0429 9.815C58.3229 9.815 57.7479 10.04 57.3179 10.49C56.8979 10.94 56.6879 11.595 56.6879 12.455V17H55.3229V8.78H56.6879V9.95C56.9579 9.53 57.3229 9.205 57.7829 8.975C58.2529 8.745 58.7679 8.63 59.3279 8.63ZM64.4076 12.86C64.4076 12.02 64.5776 11.285 64.9176 10.655C65.2576 10.015 65.7226 9.52 66.3126 9.17C66.9126 8.82 67.5826 8.645 68.3226 8.645C68.9626 8.645 69.5576 8.795 70.1076 9.095C70.6576 9.385 71.0776 9.77 71.3676 10.25V5.9H72.7476V17H71.3676V15.455C71.0976 15.945 70.6976 16.35 70.1676 16.67C69.6376 16.98 69.0176 17.135 68.3076 17.135C67.5776 17.135 66.9126 16.955 66.3126 16.595C65.7226 16.235 65.2576 15.73 64.9176 15.08C64.5776 14.43 64.4076 13.69 64.4076 12.86ZM71.3676 12.875C71.3676 12.255 71.2426 11.715 70.9926 11.255C70.7426 10.795 70.4026 10.445 69.9726 10.205C69.5526 9.955 69.0876 9.83 68.5776 9.83C68.0676 9.83 67.6026 9.95 67.1826 10.19C66.7626 10.43 66.4276 10.78 66.1776 11.24C65.9276 11.7 65.8026 12.24 65.8026 12.86C65.8026 13.49 65.9276 14.04 66.1776 14.51C66.4276 14.97 66.7626 15.325 67.1826 15.575C67.6026 15.815 68.0676 15.935 68.5776 15.935C69.0876 15.935 69.5526 15.815 69.9726 15.575C70.4026 15.325 70.7426 14.97 70.9926 14.51C71.2426 14.04 71.3676 13.495 71.3676 12.875Z" fill="black"/>
<path d="M24 15L15 22L6 15L9 4L12 11H18L21 4L24 15Z" stroke="black" stroke-width="2" stroke-linecap="round" stroke-linejoin="round"/>
</svg>
