<svg width="68" height="69" viewBox="0 0 68 69" fill="none" xmlns="http://www.w3.org/2000/svg">
<rect width="68" height="68" rx="34" fill="#DDDDDD"/>
<path d="M19.8393 55.89H23.4993V57H18.4743V46.545H19.8393V55.89ZM25.6539 47.445C25.3939 47.445 25.1739 47.355 24.9939 47.175C24.8139 46.995 24.7239 46.775 24.7239 46.515C24.7239 46.255 24.8139 46.035 24.9939 45.855C25.1739 45.675 25.3939 45.585 25.6539 45.585C25.9039 45.585 26.1139 45.675 26.2839 45.855C26.4639 46.035 26.5539 46.255 26.5539 46.515C26.5539 46.775 26.4639 46.995 26.2839 47.175C26.1139 47.355 25.9039 47.445 25.6539 47.445ZM26.3139 48.78V57H24.9489V48.78H26.3139ZM32.0304 48.645C32.7404 48.645 33.3604 48.8 33.8904 49.11C34.4304 49.42 34.8304 49.81 35.0904 50.28V48.78H36.4704V57.18C36.4704 57.93 36.3104 58.595 35.9904 59.175C35.6704 59.765 35.2104 60.225 34.6104 60.555C34.0204 60.885 33.3304 61.05 32.5404 61.05C31.4604 61.05 30.5604 60.795 29.8404 60.285C29.1204 59.775 28.6954 59.08 28.5654 58.2H29.9154C30.0654 58.7 30.3754 59.1 30.8454 59.4C31.3154 59.71 31.8804 59.865 32.5404 59.865C33.2904 59.865 33.9004 59.63 34.3704 59.16C34.8504 58.69 35.0904 58.03 35.0904 57.18V55.455C34.8204 55.935 34.4204 56.335 33.8904 56.655C33.3604 56.975 32.7404 57.135 32.0304 57.135C31.3004 57.135 30.6354 56.955 30.0354 56.595C29.4454 56.235 28.9804 55.73 28.6404 55.08C28.3004 54.43 28.1304 53.69 28.1304 52.86C28.1304 52.02 28.3004 51.285 28.6404 50.655C28.9804 50.015 29.4454 49.52 30.0354 49.17C30.6354 48.82 31.3004 48.645 32.0304 48.645ZM35.0904 52.875C35.0904 52.255 34.9654 51.715 34.7154 51.255C34.4654 50.795 34.1254 50.445 33.6954 50.205C33.2754 49.955 32.8104 49.83 32.3004 49.83C31.7904 49.83 31.3254 49.95 30.9054 50.19C30.4854 50.43 30.1504 50.78 29.9004 51.24C29.6504 51.7 29.5254 52.24 29.5254 52.86C29.5254 53.49 29.6504 54.04 29.9004 54.51C30.1504 54.97 30.4854 55.325 30.9054 55.575C31.3254 55.815 31.7904 55.935 32.3004 55.935C32.8104 55.935 33.2754 55.815 33.6954 55.575C34.1254 55.325 34.4654 54.97 34.7154 54.51C34.9654 54.04 35.0904 53.495 35.0904 52.875ZM42.8571 48.63C43.4771 48.63 44.0371 48.765 44.5371 49.035C45.0371 49.295 45.4271 49.69 45.7071 50.22C45.9971 50.75 46.1421 51.395 46.1421 52.155V57H44.7921V52.35C44.7921 51.53 44.5871 50.905 44.1771 50.475C43.7671 50.035 43.2071 49.815 42.4971 49.815C41.7771 49.815 41.2021 50.04 40.7721 50.49C40.3521 50.94 40.1421 51.595 40.1421 52.455V57H38.7771V45.9H40.1421V49.95C40.4121 49.53 40.7821 49.205 41.2521 48.975C41.7321 48.745 42.2671 48.63 42.8571 48.63ZM50.0368 49.905V54.75C50.0368 55.15 50.1218 55.435 50.2918 55.605C50.4618 55.765 50.7568 55.845 51.1768 55.845H52.1818V57H50.9518C50.1918 57 49.6218 56.825 49.2418 56.475C48.8618 56.125 48.6718 55.55 48.6718 54.75V49.905H47.6068V48.78H48.6718V46.71H50.0368V48.78H52.1818V49.905H50.0368Z" fill="black"/>
<path d="M36.6633 43.6667H33.33V38.6667H36.6633V43.6667ZM45.6034 39.9633L42.0683 36.4283L44.425 34.0717L47.9617 37.6083L45.6067 39.9633H45.6034V39.9633ZM24.39 39.9633L22.0333 37.6067L25.5667 34.07L27.925 36.4267L24.3917 39.9617V39.9633H24.39ZM34.9967 35.345C32.7835 35.3441 30.6612 34.4641 29.0969 32.8985C27.5325 31.3328 26.6541 29.2099 26.655 26.9967C26.6559 24.7834 27.536 22.6612 29.1016 21.0968C30.6672 19.5325 32.7901 18.6541 35.0033 18.655C36.0992 18.6554 37.1843 18.8717 38.1966 19.2915C39.2089 19.7113 40.1286 20.3263 40.9032 21.1016C41.6778 21.8768 42.2921 22.797 42.7111 23.8096C43.13 24.8222 43.3455 25.9075 43.345 27.0033C43.3446 28.0992 43.1283 29.1843 42.7085 30.1966C42.2887 31.2089 41.6737 32.1286 40.8985 32.9032C40.1233 33.6778 39.2031 34.2921 38.1904 34.7111C37.1778 35.13 36.0926 35.3454 34.9967 35.345V35.345ZM34.9967 21.9883C34.3385 21.9888 33.6869 22.1188 33.0791 22.3711C32.4712 22.6234 31.9189 22.9929 31.4539 23.4586C30.9888 23.9243 30.62 24.477 30.3686 25.0852C30.1171 25.6934 29.9879 26.3452 29.9883 27.0033C29.9888 27.6615 30.1189 28.3131 30.3711 28.921C30.6234 29.5288 30.9929 30.0811 31.4586 30.5462C31.9243 31.0112 32.477 31.38 33.0852 31.6315C33.6934 31.8829 34.3452 32.0121 35.0033 32.0117C36.3325 32.0108 37.6069 31.4819 38.5462 30.5414C39.4854 29.6009 40.0126 28.3259 40.0117 26.9967C40.0108 25.6675 39.4819 24.3931 38.5414 23.4539C37.6009 22.5146 36.3259 21.9875 34.9967 21.9883V21.9883ZM51.6633 28.6667H46.6633V25.3333H51.6633V28.6667ZM23.33 28.6667H18.33V25.3333H23.33V28.6667ZM44.4233 19.93L42.0683 17.5717L45.6034 14.035L47.9617 16.3933L44.425 19.9283L44.4233 19.93V19.93ZM25.5684 19.93L22.035 16.395L24.3934 14.0383L27.9267 17.575L25.57 19.9283V19.93H25.5684ZM36.6633 15.3333H33.33V10.3333H36.6633V15.3333Z" fill="black"/>
</svg>
