<svg width="68" height="70" viewBox="0 0 68 70" fill="none" xmlns="http://www.w3.org/2000/svg">
<rect width="68" height="68" rx="34" fill="#445F80"/>
<path fill-rule="evenodd" clip-rule="evenodd" d="M47.4133 35.3283C47.2756 35.3316 47.1378 35.3333 47 35.3333C36.875 35.3333 28.6667 27.125 28.6667 17C28.6667 16.8617 28.6667 16.7233 28.6717 16.5867C27.2082 17.7584 26.0083 19.2256 25.1502 20.8924C24.2922 22.5593 23.7953 24.3884 23.692 26.2603C23.5886 28.1322 23.8813 30.0048 24.5507 31.756C25.2201 33.5071 26.2513 35.0974 27.5769 36.4231C28.9026 37.7487 30.4929 38.7799 32.244 39.4493C33.9952 40.1188 35.8679 40.4114 37.7398 40.3081C39.6117 40.2048 41.4407 39.7079 43.1076 38.8498C44.7744 37.9917 46.2416 36.7918 47.4133 35.3283V35.3283ZM49.4433 31.8017C46.7555 32.2463 43.9973 31.9505 41.4649 30.946C38.9324 29.9415 36.7214 28.2662 35.0691 26.1001C33.4168 23.934 32.3856 21.3588 32.0863 18.6509C31.7869 15.943 32.2307 13.2047 33.37 10.73C29.6707 11.5552 26.3632 13.6168 23.9932 16.5746C21.6232 19.5324 20.3323 23.2098 20.3333 27C20.3333 36.205 27.795 43.6667 37 43.6667C40.7901 43.6675 44.4673 42.3764 47.4251 40.0064C50.3829 37.6365 52.4445 34.3292 53.27 30.63C52.0531 31.1913 50.7659 31.5854 49.4433 31.8017V31.8017Z" fill="white"/>
<path d="M21.3812 47.545C22.5212 47.545 23.5062 47.76 24.3362 48.19C25.1762 48.61 25.8162 49.215 26.2562 50.005C26.7062 50.795 26.9312 51.725 26.9312 52.795C26.9312 53.865 26.7062 54.795 26.2562 55.585C25.8162 56.365 25.1762 56.965 24.3362 57.385C23.5062 57.795 22.5212 58 21.3812 58H18.1262V47.545H21.3812ZM21.3812 56.875C22.7312 56.875 23.7612 56.52 24.4712 55.81C25.1812 55.09 25.5362 54.085 25.5362 52.795C25.5362 51.495 25.1762 50.48 24.4562 49.75C23.7462 49.02 22.7212 48.655 21.3812 48.655H19.4912V56.875H21.3812ZM28.2217 53.86C28.2217 53.02 28.3917 52.285 28.7317 51.655C29.0717 51.015 29.5367 50.52 30.1267 50.17C30.7267 49.82 31.3917 49.645 32.1217 49.645C32.8417 49.645 33.4667 49.8 33.9967 50.11C34.5267 50.42 34.9217 50.81 35.1817 51.28V49.78H36.5617V58H35.1817V56.47C34.9117 56.95 34.5067 57.35 33.9667 57.67C33.4367 57.98 32.8167 58.135 32.1067 58.135C31.3767 58.135 30.7167 57.955 30.1267 57.595C29.5367 57.235 29.0717 56.73 28.7317 56.08C28.3917 55.43 28.2217 54.69 28.2217 53.86ZM35.1817 53.875C35.1817 53.255 35.0567 52.715 34.8067 52.255C34.5567 51.795 34.2167 51.445 33.7867 51.205C33.3667 50.955 32.9017 50.83 32.3917 50.83C31.8817 50.83 31.4167 50.95 30.9967 51.19C30.5767 51.43 30.2417 51.78 29.9917 52.24C29.7417 52.7 29.6167 53.24 29.6167 53.86C29.6167 54.49 29.7417 55.04 29.9917 55.51C30.2417 55.97 30.5767 56.325 30.9967 56.575C31.4167 56.815 31.8817 56.935 32.3917 56.935C32.9017 56.935 33.3667 56.815 33.7867 56.575C34.2167 56.325 34.5567 55.97 34.8067 55.51C35.0567 55.04 35.1817 54.495 35.1817 53.875ZM40.2334 51.115C40.4734 50.645 40.8134 50.28 41.2534 50.02C41.7034 49.76 42.2484 49.63 42.8884 49.63V51.04H42.5284C40.9984 51.04 40.2334 51.87 40.2334 53.53V58H38.8684V49.78H40.2334V51.115ZM49.0541 58L45.8291 54.37V58H44.4641V46.9H45.8291V53.425L48.9941 49.78H50.8991L47.0291 53.875L50.9141 58H49.0541Z" fill="white"/>
</svg>
