<svg width="65" height="65" viewBox="0 0 65 65" fill="none" xmlns="http://www.w3.org/2000/svg">
<path d="M42.6562 20.3125H46.7188V44.6875H42.6562V20.3125ZM17.2514 44.4072C16.9465 44.2278 16.6937 43.9719 16.518 43.6648C16.3424 43.3577 16.25 43.01 16.25 42.6562V22.3437C16.25 21.9899 16.3424 21.6423 16.518 21.3352C16.6937 21.0281 16.9465 20.7722 17.2515 20.5928C17.5564 20.4134 17.9029 20.3168 18.2567 20.3126C18.6105 20.3083 18.9592 20.3965 19.2684 20.5684L37.5497 30.7247C37.8662 30.9007 38.1299 31.158 38.3135 31.4702C38.4971 31.7823 38.5939 32.1379 38.5939 32.5C38.5939 32.8621 38.4971 33.2177 38.3135 33.5298C38.1299 33.842 37.8662 34.0993 37.5497 34.2753L19.2684 44.4316C18.9592 44.6035 18.6105 44.6917 18.2567 44.6874C17.9029 44.6832 17.5564 44.5866 17.2514 44.4072ZM20.3125 25.7969V39.2052L32.3781 32.5L20.3125 25.7969Z" fill="#838383"/>
<path d="M32.5 60.9375C26.8756 60.9375 21.3775 59.2697 16.701 56.1449C12.0245 53.0202 8.37956 48.5788 6.22719 43.3826C4.07482 38.1863 3.51166 32.4685 4.60893 26.9521C5.7062 21.4358 8.41461 16.3687 12.3917 12.3916C16.3687 8.41459 21.4358 5.70618 26.9521 4.60892C32.4685 3.51165 38.1863 4.07481 43.3826 6.22717C48.5789 8.37954 53.0202 12.0244 56.1449 16.701C59.2697 21.3775 60.9375 26.8756 60.9375 32.5C60.9289 40.0395 57.9301 47.2676 52.5989 52.5988C47.2677 57.9301 40.0395 60.9289 32.5 60.9375V60.9375ZM32.5 8.125C27.6791 8.125 22.9664 9.55457 18.958 12.2329C14.9495 14.9113 11.8253 18.7181 9.98045 23.1721C8.13556 27.626 7.65286 32.527 8.59337 37.2553C9.53389 41.9836 11.8554 46.3268 15.2643 49.7357C18.6732 53.1446 23.0164 55.4661 27.7447 56.4066C32.473 57.3472 37.374 56.8645 41.8279 55.0196C46.2819 53.1747 50.0887 50.0505 52.7671 46.042C55.4454 42.0336 56.875 37.3209 56.875 32.5C56.8675 26.0377 54.297 19.8422 49.7274 15.2726C45.1579 10.703 38.9624 8.13252 32.5 8.125V8.125Z" fill="#838383"/>
</svg>
