<svg width="171" height="73" viewBox="0 0 171 73" fill="none" xmlns="http://www.w3.org/2000/svg">
<rect x="1" y="6" width="169" height="67" rx="5" fill="#FF0000"/>
<rect x="0.49292" width="169.65" height="68" rx="5" fill="#818181"/>
<path d="M31.3809 12.765C31.3809 11.745 31.6109 10.83 32.0709 10.02C32.5309 9.2 33.1559 8.56 33.9459 8.1C34.7459 7.64 35.6309 7.41 36.6009 7.41C37.7409 7.41 38.7359 7.685 39.5859 8.235C40.4359 8.785 41.0559 9.565 41.4459 10.575H39.8109C39.5209 9.945 39.1009 9.46 38.5509 9.12C38.0109 8.78 37.3609 8.61 36.6009 8.61C35.8709 8.61 35.2159 8.78 34.6359 9.12C34.0559 9.46 33.6009 9.945 33.2709 10.575C32.9409 11.195 32.7759 11.925 32.7759 12.765C32.7759 13.595 32.9409 14.325 33.2709 14.955C33.6009 15.575 34.0559 16.055 34.6359 16.395C35.2159 16.735 35.8709 16.905 36.6009 16.905C37.3609 16.905 38.0109 16.74 38.5509 16.41C39.1009 16.07 39.5209 15.585 39.8109 14.955H41.4459C41.0559 15.955 40.4359 16.73 39.5859 17.28C38.7359 17.82 37.7409 18.09 36.6009 18.09C35.6309 18.09 34.7459 17.865 33.9459 17.415C33.1559 16.955 32.5309 16.32 32.0709 15.51C31.6109 14.7 31.3809 13.785 31.3809 12.765ZM47.0628 18.135C46.2928 18.135 45.5928 17.96 44.9628 17.61C44.3428 17.26 43.8528 16.765 43.4928 16.125C43.1428 15.475 42.9678 14.725 42.9678 13.875C42.9678 13.035 43.1478 12.295 43.5078 11.655C43.8778 11.005 44.3778 10.51 45.0078 10.17C45.6378 9.82 46.3428 9.645 47.1228 9.645C47.9028 9.645 48.6078 9.82 49.2378 10.17C49.8678 10.51 50.3628 11 50.7228 11.64C51.0928 12.28 51.2778 13.025 51.2778 13.875C51.2778 14.725 51.0878 15.475 50.7078 16.125C50.3378 16.765 49.8328 17.26 49.1928 17.61C48.5528 17.96 47.8428 18.135 47.0628 18.135ZM47.0628 16.935C47.5528 16.935 48.0128 16.82 48.4428 16.59C48.8728 16.36 49.2178 16.015 49.4778 15.555C49.7478 15.095 49.8828 14.535 49.8828 13.875C49.8828 13.215 49.7528 12.655 49.4928 12.195C49.2328 11.735 48.8928 11.395 48.4728 11.175C48.0528 10.945 47.5978 10.83 47.1078 10.83C46.6078 10.83 46.1478 10.945 45.7278 11.175C45.3178 11.395 44.9878 11.735 44.7378 12.195C44.4878 12.655 44.3628 13.215 44.3628 13.875C44.3628 14.545 44.4828 15.11 44.7228 15.57C44.9728 16.03 45.3028 16.375 45.7128 16.605C46.1228 16.825 46.5728 16.935 47.0628 16.935ZM54.4375 6.9V18H53.0725V6.9H54.4375ZM60.3489 18.135C59.5789 18.135 58.8789 17.96 58.2489 17.61C57.6289 17.26 57.1389 16.765 56.7789 16.125C56.4289 15.475 56.2539 14.725 56.2539 13.875C56.2539 13.035 56.4339 12.295 56.7939 11.655C57.1639 11.005 57.6639 10.51 58.2939 10.17C58.9239 9.82 59.6289 9.645 60.4089 9.645C61.1889 9.645 61.8939 9.82 62.5239 10.17C63.1539 10.51 63.6489 11 64.0089 11.64C64.3789 12.28 64.5639 13.025 64.5639 13.875C64.5639 14.725 64.3739 15.475 63.9939 16.125C63.6239 16.765 63.1189 17.26 62.4789 17.61C61.8389 17.96 61.1289 18.135 60.3489 18.135ZM60.3489 16.935C60.8389 16.935 61.2989 16.82 61.7289 16.59C62.1589 16.36 62.5039 16.015 62.7639 15.555C63.0339 15.095 63.1689 14.535 63.1689 13.875C63.1689 13.215 63.0389 12.655 62.7789 12.195C62.5189 11.735 62.1789 11.395 61.7589 11.175C61.3389 10.945 60.8839 10.83 60.3939 10.83C59.8939 10.83 59.4339 10.945 59.0139 11.175C58.6039 11.395 58.2739 11.735 58.0239 12.195C57.7739 12.655 57.6489 13.215 57.6489 13.875C57.6489 14.545 57.7689 15.11 58.0089 15.57C58.2589 16.03 58.5889 16.375 58.9989 16.605C59.4089 16.825 59.8589 16.935 60.3489 16.935ZM67.7236 11.115C67.9636 10.645 68.3036 10.28 68.7436 10.02C69.1936 9.76 69.7386 9.63 70.3786 9.63V11.04H70.0186C68.4886 11.04 67.7236 11.87 67.7236 13.53V18H66.3586V9.78H67.7236V11.115Z" fill="black"/>
<path d="M25 14.998C24.908 15.063 23 17.081 23 18.498C23 19.992 23.949 20.946 25 20.998C25.906 21.042 27 20.107 27 18.498C27 16.998 25.092 15.063 25 14.998V14.998ZM8.414 13.998C8.414 14.532 8.622 15.034 9 15.412L14.586 20.998C14.964 21.376 15.466 21.584 16 21.584C16.534 21.584 17.036 21.376 17.414 20.998L24.414 13.998L23.707 13.291L16 5.584L13.707 3.291L12.293 4.705L14.586 6.998L9 12.584C8.622 12.962 8.414 13.464 8.414 13.998V13.998ZM16 8.412L21.586 13.998L16 19.584H16.001L16 20.584V19.584L10.414 13.998L16 8.412Z" fill="black"/>
</svg>
