<svg width="65" height="65" viewBox="0 0 65 65" fill="none" xmlns="http://www.w3.org/2000/svg">
<path d="M22.3438 20.3125H18.2812V44.6875H22.3438V20.3125ZM47.7486 44.4072C48.0535 44.2278 48.3063 43.9719 48.482 43.6648C48.6576 43.3577 48.75 43.01 48.75 42.6562V22.3437C48.75 21.9899 48.6576 21.6423 48.482 21.3352C48.3063 21.0281 48.0535 20.7722 47.7485 20.5928C47.4436 20.4134 47.0971 20.3168 46.7433 20.3126C46.3895 20.3083 46.0408 20.3965 45.7316 20.5684L27.4503 30.7247C27.1338 30.9007 26.8701 31.158 26.6865 31.4702C26.5029 31.7823 26.4061 32.1379 26.4061 32.5C26.4061 32.8621 26.5029 33.2177 26.6865 33.5298C26.8701 33.842 27.1338 34.0993 27.4503 34.2753L45.7316 44.4316C46.0408 44.6035 46.3895 44.6917 46.7433 44.6874C47.0971 44.6832 47.4436 44.5866 47.7486 44.4072ZM44.6875 25.7969V39.2052L32.6219 32.5L44.6875 25.7969Z" fill="#FF1A1A"/>
<path d="M32.5 60.9375C38.1244 60.9375 43.6225 59.2697 48.299 56.1449C52.9756 53.0202 56.6205 48.5788 58.7728 43.3826C60.9252 38.1863 61.4884 32.4685 60.3911 26.9521C59.2938 21.4358 56.5854 16.3687 52.6084 12.3916C48.6313 8.41459 43.5642 5.70618 38.0479 4.60892C32.5315 3.51165 26.8137 4.07481 21.6174 6.22717C16.4212 8.37954 11.9798 12.0244 8.85508 16.701C5.73033 21.3775 4.0625 26.8756 4.0625 32.5C4.0711 40.0395 7.06995 47.2676 12.4012 52.5988C17.7324 57.9301 24.9605 60.9289 32.5 60.9375V60.9375ZM32.5 8.125C37.3209 8.125 42.0336 9.55457 46.042 12.2329C50.0505 14.9113 53.1747 18.7181 55.0196 23.1721C56.8645 27.626 57.3472 32.527 56.4066 37.2553C55.4661 41.9836 53.1446 46.3268 49.7357 49.7357C46.3268 53.1446 41.9836 55.4661 37.2553 56.4066C32.527 57.3472 27.626 56.8645 23.1721 55.0196C18.7181 53.1747 14.9113 50.0505 12.2329 46.042C9.55457 42.0336 8.125 37.3209 8.125 32.5C8.13252 26.0377 10.703 19.8422 15.2726 15.2726C19.8422 10.703 26.0377 8.13252 32.5 8.125V8.125Z" fill="#FF1A1A"/>
</svg>
