<svg width="704" height="245" viewBox="0 0 704 245" fill="none" xmlns="http://www.w3.org/2000/svg">
<rect y="170" width="352" height="64" fill="#1A262C"/>
<rect x="27.0027" y="206.159" width="57.863" height="3.98374" fill="#D9D9D9"/>
<rect x="108.011" y="206.159" width="57.863" height="3.98374" fill="#D9D9D9"/>
<rect x="189.019" y="206.159" width="57.863" height="3.98374" fill="#D9D9D9"/>
<rect x="270.027" y="206.159" width="57.863" height="3.98374" fill="#D9D9D9"/>
<rect y="170.305" width="352" height="10.9553" fill="#4F6572"/>
<rect y="234.045" width="352" height="10.9553" fill="#4F6572"/>
<rect x="352" y="170" width="352" height="64" fill="#1A262C"/>
<rect x="358.751" y="206.159" width="57.863" height="3.98374" fill="#D9D9D9"/>
<rect x="439.759" y="206.159" width="57.863" height="3.98374" fill="#D9D9D9"/>
<rect x="520.767" y="206.159" width="57.863" height="3.98374" fill="#D9D9D9"/>
<rect x="601.775" y="206.159" width="57.863" height="3.98374" fill="#D9D9D9"/>
<rect x="352" y="170.305" width="352" height="10.9553" fill="#4F6572"/>
<rect x="352" y="234" width="352" height="10.9553" fill="#4F6572"/>
<rect x="682.031" y="206" width="20.9702" height="4" fill="#D9D9D9"/>
<rect y="206" width="11.983" height="4" fill="#D9D9D9"/>
</svg>
