<svg width="704" height="245" viewBox="0 0 704 245" fill="none" xmlns="http://www.w3.org/2000/svg">
<rect y="100" width="340" height="145" fill="#5A9B28"/>
<path d="M115.041 49L158.2 119.5H71.8822L115.041 49Z" fill="#32612B"/>
<path d="M264.548 64L285.522 97.75H243.574L264.548 64Z" fill="#32612B"/>
<path d="M187.233 69L227.568 135H146.897L187.233 69Z" fill="#9EC089"/>
<path d="M281.315 70L300.676 101.5H261.954L281.315 70Z" fill="#9EC089"/>
<path d="M84.7671 35L142.85 130.25H26.6841L84.7671 35Z" fill="#528C24"/>
<path d="M244.521 58L272.352 103.75H216.689L244.521 58Z" fill="#528C24"/>
<path d="M145.315 49L203.398 144.25H87.232L145.315 49Z" fill="#5A922E"/>
<rect x="340" y="100" width="364" height="145" fill="#5A9B28"/>
<path d="M607.764 71L653.97 141.5H561.559L607.764 71Z" fill="#32612B"/>
<path d="M563.386 58L625.569 153.25H501.203L563.386 58Z" fill="#528C24"/>
<path d="M589.315 78L651.498 173.25H527.132L589.315 78Z" fill="#5A922E"/>
<path d="M440.723 15L498.588 103.5H382.859L440.723 15Z" fill="#528C24"/>
<path d="M399.836 50L443.018 115.25H356.653L399.836 50Z" fill="#32612B"/>
<path d="M451.195 60L491.354 121.5H411.035L451.195 60Z" fill="#9EC089"/>
<rect x="278" y="130.5" width="6" height="55.5" fill="#876060"/>
<circle cx="268.25" cy="144" r="18.75" fill="#00C508"/>
<circle cx="293.75" cy="144" r="18.75" fill="#00C508"/>
<circle cx="281.75" cy="123.75" r="18.75" fill="#00C508"/>
<circle cx="300.5" cy="126" r="18.75" fill="#00C508"/>
<circle cx="266.75" cy="125.25" r="18.75" fill="#00C508"/>
<circle cx="284.75" cy="105.75" r="18.75" fill="#00C508"/>
<rect x="105.152" y="133.97" width="3.0303" height="28.0303" fill="#876060"/>
<circle cx="100.227" cy="140.788" r="9.4697" fill="#00C508"/>
<circle cx="113.106" cy="140.788" r="9.4697" fill="#00C508"/>
<circle cx="107.045" cy="130.561" r="9.4697" fill="#00C508"/>
<circle cx="116.515" cy="131.697" r="9.4697" fill="#00C508"/>
<circle cx="99.4697" cy="131.318" r="9.4697" fill="#00C508"/>
<circle cx="108.561" cy="121.47" r="9.4697" fill="#00C508"/>
<rect x="527.151" y="142.97" width="3.0303" height="28.0303" fill="#876060"/>
<circle cx="522.227" cy="149.788" r="9.4697" fill="#00C508"/>
<circle cx="535.106" cy="149.788" r="9.4697" fill="#00C508"/>
<circle cx="529.045" cy="139.561" r="9.4697" fill="#00C508"/>
<circle cx="538.515" cy="140.697" r="9.4697" fill="#00C508"/>
<circle cx="521.47" cy="140.318" r="9.4697" fill="#00C508"/>
<circle cx="530.561" cy="130.47" r="9.4697" fill="#00C508"/>
<rect x="53.1515" y="126.97" width="3.0303" height="28.0303" fill="#876060"/>
<circle cx="48.2273" cy="133.788" r="9.4697" fill="#00C508"/>
<circle cx="61.1061" cy="133.788" r="9.4697" fill="#00C508"/>
<circle cx="55.0455" cy="123.561" r="9.4697" fill="#00C508"/>
<circle cx="64.5152" cy="124.697" r="9.4697" fill="#00C508"/>
<circle cx="47.4697" cy="124.318" r="9.4697" fill="#00C508"/>
<circle cx="56.5606" cy="114.47" r="9.4697" fill="#00C508"/>
<rect x="475.152" y="135.97" width="3.0303" height="28.0303" fill="#876060"/>
<circle cx="470.227" cy="142.788" r="9.4697" fill="#00C508"/>
<circle cx="483.106" cy="142.788" r="9.4697" fill="#00C508"/>
<circle cx="477.045" cy="132.561" r="9.4697" fill="#00C508"/>
<circle cx="486.515" cy="133.697" r="9.4697" fill="#00C508"/>
<circle cx="469.47" cy="133.318" r="9.4697" fill="#00C508"/>
<circle cx="478.561" cy="123.47" r="9.4697" fill="#00C508"/>
<rect x="359" y="127.5" width="6" height="55.5" fill="#876060"/>
<circle cx="349.25" cy="141" r="18.75" fill="#00C508"/>
<circle cx="374.75" cy="141" r="18.75" fill="#00C508"/>
<circle cx="362.75" cy="120.75" r="18.75" fill="#00C508"/>
<circle cx="381.5" cy="123" r="18.75" fill="#00C508"/>
<circle cx="347.75" cy="122.25" r="18.75" fill="#00C508"/>
<circle cx="365.75" cy="102.75" r="18.75" fill="#00C508"/>
<rect x="319" y="115" width="8" height="74" fill="#876060"/>
<circle cx="306" cy="133" r="25" fill="#114113"/>
<circle cx="340" cy="133" r="25" fill="#114113"/>
<circle cx="324" cy="106" r="25" fill="#114113"/>
<circle cx="349" cy="109" r="25" fill="#114113"/>
<circle cx="304" cy="108" r="25" fill="#114113"/>
<circle cx="328" cy="82" r="25" fill="#114113"/>
<rect x="661.091" y="127.182" width="5.81818" height="53.8182" fill="#876060"/>
<circle cx="651.636" cy="140.273" r="18.1818" fill="#114113"/>
<circle cx="676.364" cy="140.273" r="18.1818" fill="#114113"/>
<circle cx="664.727" cy="120.636" r="18.1818" fill="#114113"/>
<circle cx="682.909" cy="122.818" r="18.1818" fill="#114113"/>
<circle cx="650.182" cy="122.091" r="18.1818" fill="#114113"/>
<circle cx="667.636" cy="103.182" r="18.1818" fill="#114113"/>
<rect x="63.3333" y="111.833" width="4.66667" height="43.1667" fill="#876060"/>
<circle cx="55.75" cy="122.333" r="14.5833" fill="#114113"/>
<circle cx="75.5833" cy="122.333" r="14.5833" fill="#114113"/>
<circle cx="66.25" cy="106.583" r="14.5833" fill="#114113"/>
<circle cx="80.8333" cy="108.333" r="14.5833" fill="#114113"/>
<circle cx="54.5833" cy="107.75" r="14.5833" fill="#114113"/>
<circle cx="68.5833" cy="92.5833" r="14.5833" fill="#114113"/>
<rect x="485.333" y="120.833" width="4.66667" height="43.1667" fill="#876060"/>
<circle cx="477.75" cy="131.333" r="14.5833" fill="#114113"/>
<circle cx="497.583" cy="131.333" r="14.5833" fill="#114113"/>
<circle cx="488.25" cy="115.583" r="14.5833" fill="#114113"/>
<circle cx="502.833" cy="117.333" r="14.5833" fill="#114113"/>
<circle cx="476.583" cy="116.75" r="14.5833" fill="#114113"/>
<circle cx="490.583" cy="101.583" r="14.5833" fill="#114113"/>
<rect x="87.7273" y="140.455" width="2.54545" height="23.5455" fill="#876060"/>
<circle cx="83.5909" cy="146.182" r="7.95455" fill="#2B532D"/>
<circle cx="94.4091" cy="146.182" r="7.95455" fill="#2B532D"/>
<circle cx="89.3182" cy="137.591" r="7.95455" fill="#2B532D"/>
<circle cx="97.2727" cy="138.545" r="7.95455" fill="#2B532D"/>
<circle cx="82.9545" cy="138.227" r="7.95455" fill="#2B532D"/>
<circle cx="90.5909" cy="129.955" r="7.95455" fill="#2B532D"/>
<rect x="509.727" y="149.455" width="2.54545" height="23.5455" fill="#876060"/>
<circle cx="505.591" cy="155.182" r="7.95455" fill="#2B532D"/>
<circle cx="516.409" cy="155.182" r="7.95455" fill="#2B532D"/>
<circle cx="511.318" cy="146.591" r="7.95455" fill="#2B532D"/>
<circle cx="519.273" cy="147.545" r="7.95455" fill="#2B532D"/>
<circle cx="504.955" cy="147.227" r="7.95455" fill="#2B532D"/>
<circle cx="512.591" cy="138.955" r="7.95455" fill="#2B532D"/>
</svg>
