<svg width="704" height="230" viewBox="0 0 704 230" fill="none" xmlns="http://www.w3.org/2000/svg">
<rect x="-25" y="85" width="365" height="145" fill="#5A9B28"/>
<path d="M98.5 34L144.832 104.5H52.1676L98.5 34Z" fill="#32612B"/>
<path d="M259 49L281.517 82.75H236.483L259 49Z" fill="#32612B"/>
<path d="M176 54L219.301 120H132.699L176 54Z" fill="#9EC089"/>
<path d="M277 55L297.785 86.5H256.215L277 55Z" fill="#9EC089"/>
<path d="M66 20L128.354 115.25H3.64617L66 20Z" fill="#528C24"/>
<path d="M237.5 43L267.378 88.75H207.622L237.5 43Z" fill="#528C24"/>
<path d="M131 34L193.354 129.25H68.6462L131 34Z" fill="#5A922E"/>
<rect x="340" y="85" width="365" height="145" fill="#5A9B28"/>
<path d="M608.5 56L654.832 126.5H562.168L608.5 56Z" fill="#32612B"/>
<path d="M564 43L626.354 138.25H501.646L564 43Z" fill="#528C24"/>
<path d="M590 63L652.354 158.25H527.646L590 63Z" fill="#5A922E"/>
<path d="M441 0L499.024 88.5H382.976L441 0Z" fill="#528C24"/>
<path d="M400 35L443.301 100.25H356.699L400 35Z" fill="#32612B"/>
<path d="M451.5 45L491.77 106.5H411.23L451.5 45Z" fill="#9EC089"/>
<rect x="278" y="115.5" width="6" height="55.5" fill="#876060"/>
<circle cx="268.25" cy="129" r="18.75" fill="#00C508"/>
<circle cx="293.75" cy="129" r="18.75" fill="#00C508"/>
<circle cx="281.75" cy="108.75" r="18.75" fill="#00C508"/>
<circle cx="300.5" cy="111" r="18.75" fill="#00C508"/>
<circle cx="266.75" cy="110.25" r="18.75" fill="#00C508"/>
<circle cx="284.75" cy="90.75" r="18.75" fill="#00C508"/>
<rect x="105.152" y="118.97" width="3.0303" height="28.0303" fill="#876060"/>
<circle cx="100.227" cy="125.788" r="9.4697" fill="#00C508"/>
<circle cx="113.106" cy="125.788" r="9.4697" fill="#00C508"/>
<circle cx="107.045" cy="115.561" r="9.4697" fill="#00C508"/>
<circle cx="116.515" cy="116.697" r="9.4697" fill="#00C508"/>
<circle cx="99.4697" cy="116.318" r="9.4697" fill="#00C508"/>
<circle cx="108.561" cy="106.47" r="9.4697" fill="#00C508"/>
<rect x="527.151" y="127.97" width="3.0303" height="28.0303" fill="#876060"/>
<circle cx="522.227" cy="134.788" r="9.4697" fill="#00C508"/>
<circle cx="535.106" cy="134.788" r="9.4697" fill="#00C508"/>
<circle cx="529.045" cy="124.561" r="9.4697" fill="#00C508"/>
<circle cx="538.515" cy="125.697" r="9.4697" fill="#00C508"/>
<circle cx="521.47" cy="125.318" r="9.4697" fill="#00C508"/>
<circle cx="530.561" cy="115.47" r="9.4697" fill="#00C508"/>
<rect x="53.1515" y="111.97" width="3.0303" height="28.0303" fill="#876060"/>
<circle cx="48.2273" cy="118.788" r="9.4697" fill="#00C508"/>
<circle cx="61.1061" cy="118.788" r="9.4697" fill="#00C508"/>
<circle cx="55.0455" cy="108.561" r="9.4697" fill="#00C508"/>
<circle cx="64.5152" cy="109.697" r="9.4697" fill="#00C508"/>
<circle cx="47.4697" cy="109.318" r="9.4697" fill="#00C508"/>
<circle cx="56.5606" cy="99.4697" r="9.4697" fill="#00C508"/>
<rect x="475.152" y="120.97" width="3.0303" height="28.0303" fill="#876060"/>
<circle cx="470.227" cy="127.788" r="9.4697" fill="#00C508"/>
<circle cx="483.106" cy="127.788" r="9.4697" fill="#00C508"/>
<circle cx="477.045" cy="117.561" r="9.4697" fill="#00C508"/>
<circle cx="486.515" cy="118.697" r="9.4697" fill="#00C508"/>
<circle cx="469.47" cy="118.318" r="9.4697" fill="#00C508"/>
<circle cx="478.561" cy="108.47" r="9.4697" fill="#00C508"/>
<rect x="359" y="112.5" width="6" height="55.5" fill="#876060"/>
<circle cx="349.25" cy="126" r="18.75" fill="#00C508"/>
<circle cx="374.75" cy="126" r="18.75" fill="#00C508"/>
<circle cx="362.75" cy="105.75" r="18.75" fill="#00C508"/>
<circle cx="381.5" cy="108" r="18.75" fill="#00C508"/>
<circle cx="347.75" cy="107.25" r="18.75" fill="#00C508"/>
<circle cx="365.75" cy="87.75" r="18.75" fill="#00C508"/>
<rect x="319" y="100" width="8" height="74" fill="#876060"/>
<circle cx="306" cy="118" r="25" fill="#114113"/>
<circle cx="340" cy="118" r="25" fill="#114113"/>
<circle cx="324" cy="91" r="25" fill="#114113"/>
<circle cx="349" cy="94" r="25" fill="#114113"/>
<circle cx="304" cy="93" r="25" fill="#114113"/>
<circle cx="328" cy="67" r="25" fill="#114113"/>
<rect x="661.091" y="112.182" width="5.81818" height="53.8182" fill="#876060"/>
<circle cx="651.636" cy="125.273" r="18.1818" fill="#114113"/>
<circle cx="676.364" cy="125.273" r="18.1818" fill="#114113"/>
<circle cx="664.727" cy="105.636" r="18.1818" fill="#114113"/>
<circle cx="682.909" cy="107.818" r="18.1818" fill="#114113"/>
<circle cx="650.182" cy="107.091" r="18.1818" fill="#114113"/>
<circle cx="667.636" cy="88.1818" r="18.1818" fill="#114113"/>
<rect x="63.3333" y="96.8333" width="4.66667" height="43.1667" fill="#876060"/>
<circle cx="55.75" cy="107.333" r="14.5833" fill="#114113"/>
<circle cx="75.5833" cy="107.333" r="14.5833" fill="#114113"/>
<circle cx="66.25" cy="91.5833" r="14.5833" fill="#114113"/>
<circle cx="80.8333" cy="93.3333" r="14.5833" fill="#114113"/>
<circle cx="54.5833" cy="92.75" r="14.5833" fill="#114113"/>
<circle cx="68.5833" cy="77.5833" r="14.5833" fill="#114113"/>
<rect x="485.333" y="105.833" width="4.66667" height="43.1667" fill="#876060"/>
<circle cx="477.75" cy="116.333" r="14.5833" fill="#114113"/>
<circle cx="497.583" cy="116.333" r="14.5833" fill="#114113"/>
<circle cx="488.25" cy="100.583" r="14.5833" fill="#114113"/>
<circle cx="502.833" cy="102.333" r="14.5833" fill="#114113"/>
<circle cx="476.583" cy="101.75" r="14.5833" fill="#114113"/>
<circle cx="490.583" cy="86.5833" r="14.5833" fill="#114113"/>
<rect x="87.7273" y="125.455" width="2.54545" height="23.5455" fill="#876060"/>
<circle cx="83.5909" cy="131.182" r="7.95455" fill="#2B532D"/>
<circle cx="94.4091" cy="131.182" r="7.95455" fill="#2B532D"/>
<circle cx="89.3182" cy="122.591" r="7.95455" fill="#2B532D"/>
<circle cx="97.2727" cy="123.545" r="7.95455" fill="#2B532D"/>
<circle cx="82.9545" cy="123.227" r="7.95455" fill="#2B532D"/>
<circle cx="90.5909" cy="114.955" r="7.95455" fill="#2B532D"/>
<rect x="509.727" y="134.455" width="2.54545" height="23.5455" fill="#876060"/>
<circle cx="505.591" cy="140.182" r="7.95455" fill="#2B532D"/>
<circle cx="516.409" cy="140.182" r="7.95455" fill="#2B532D"/>
<circle cx="511.318" cy="131.591" r="7.95455" fill="#2B532D"/>
<circle cx="519.273" cy="132.545" r="7.95455" fill="#2B532D"/>
<circle cx="504.955" cy="132.227" r="7.95455" fill="#2B532D"/>
<circle cx="512.591" cy="123.955" r="7.95455" fill="#2B532D"/>
</svg>
