<svg width="170" height="73" viewBox="0 0 170 73" fill="none" xmlns="http://www.w3.org/2000/svg">
<rect y="6" width="169.65" height="67" rx="5" fill="#FF0000"/>
<rect width="169.648" height="68" rx="5" fill="#818181"/>
<path d="M36.6864 7.62V18H35.3214V10.26L31.8714 18H30.9114L27.4464 10.245V18H26.0814V7.62H27.5514L31.3914 16.2L35.2314 7.62H36.6864ZM42.5863 18.135C41.8163 18.135 41.1163 17.96 40.4863 17.61C39.8663 17.26 39.3763 16.765 39.0163 16.125C38.6663 15.475 38.4913 14.725 38.4913 13.875C38.4913 13.035 38.6713 12.295 39.0313 11.655C39.4013 11.005 39.9013 10.51 40.5313 10.17C41.1613 9.82 41.8663 9.645 42.6463 9.645C43.4263 9.645 44.1313 9.82 44.7613 10.17C45.3913 10.51 45.8863 11 46.2463 11.64C46.6163 12.28 46.8013 13.025 46.8013 13.875C46.8013 14.725 46.6113 15.475 46.2313 16.125C45.8613 16.765 45.3563 17.26 44.7163 17.61C44.0763 17.96 43.3663 18.135 42.5863 18.135ZM42.5863 16.935C43.0763 16.935 43.5363 16.82 43.9663 16.59C44.3963 16.36 44.7413 16.015 45.0013 15.555C45.2713 15.095 45.4063 14.535 45.4063 13.875C45.4063 13.215 45.2763 12.655 45.0163 12.195C44.7563 11.735 44.4163 11.395 43.9963 11.175C43.5763 10.945 43.1213 10.83 42.6313 10.83C42.1313 10.83 41.6713 10.945 41.2513 11.175C40.8413 11.395 40.5113 11.735 40.2613 12.195C40.0113 12.655 39.8863 13.215 39.8863 13.875C39.8863 14.545 40.0063 15.11 40.2463 15.57C40.4963 16.03 40.8263 16.375 41.2363 16.605C41.6463 16.825 42.0963 16.935 42.5863 16.935ZM48.0861 13.86C48.0861 13.02 48.2561 12.285 48.5961 11.655C48.9361 11.015 49.4011 10.52 49.9911 10.17C50.5911 9.82 51.2611 9.645 52.0011 9.645C52.6411 9.645 53.2361 9.795 53.7861 10.095C54.3361 10.385 54.7561 10.77 55.0461 11.25V6.9H56.4261V18H55.0461V16.455C54.7761 16.945 54.3761 17.35 53.8461 17.67C53.3161 17.98 52.6961 18.135 51.9861 18.135C51.2561 18.135 50.5911 17.955 49.9911 17.595C49.4011 17.235 48.9361 16.73 48.5961 16.08C48.2561 15.43 48.0861 14.69 48.0861 13.86ZM55.0461 13.875C55.0461 13.255 54.9211 12.715 54.6711 12.255C54.4211 11.795 54.0811 11.445 53.6511 11.205C53.2311 10.955 52.7661 10.83 52.2561 10.83C51.7461 10.83 51.2811 10.95 50.8611 11.19C50.4411 11.43 50.1061 11.78 49.8561 12.24C49.6061 12.7 49.4811 13.24 49.4811 13.86C49.4811 14.49 49.6061 15.04 49.8561 15.51C50.1061 15.97 50.4411 16.325 50.8611 16.575C51.2811 16.815 51.7461 16.935 52.2561 16.935C52.7661 16.935 53.2311 16.815 53.6511 16.575C54.0811 16.325 54.4211 15.97 54.6711 15.51C54.9211 15.04 55.0461 14.495 55.0461 13.875ZM66.2328 13.575C66.2328 13.835 66.2178 14.11 66.1878 14.4H59.6178C59.6678 15.21 59.9428 15.845 60.4428 16.305C60.9528 16.755 61.5678 16.98 62.2878 16.98C62.8778 16.98 63.3678 16.845 63.7578 16.575C64.1578 16.295 64.4378 15.925 64.5978 15.465H66.0678C65.8478 16.255 65.4078 16.9 64.7478 17.4C64.0878 17.89 63.2678 18.135 62.2878 18.135C61.5078 18.135 60.8078 17.96 60.1878 17.61C59.5778 17.26 59.0978 16.765 58.7478 16.125C58.3978 15.475 58.2228 14.725 58.2228 13.875C58.2228 13.025 58.3928 12.28 58.7328 11.64C59.0728 11 59.5478 10.51 60.1578 10.17C60.7778 9.82 61.4878 9.645 62.2878 9.645C63.0678 9.645 63.7578 9.815 64.3578 10.155C64.9578 10.495 65.4178 10.965 65.7378 11.565C66.0678 12.155 66.2328 12.825 66.2328 13.575ZM64.8228 13.29C64.8228 12.77 64.7078 12.325 64.4778 11.955C64.2478 11.575 63.9328 11.29 63.5328 11.1C63.1428 10.9 62.7078 10.8 62.2278 10.8C61.5378 10.8 60.9478 11.02 60.4578 11.46C59.9778 11.9 59.7028 12.51 59.6328 13.29H64.8228ZM69.3995 6.9V18H68.0345V6.9H69.3995Z" fill="black"/>
<path d="M21.3353 14.0787L17.25 12.0372V7.25C17.2499 7.11075 17.2111 6.97427 17.1378 6.85585C17.0646 6.73743 16.9598 6.64174 16.8353 6.5795L12.3353 4.3295C12.2312 4.27748 12.1164 4.2504 12 4.2504C11.8836 4.2504 11.7689 4.27748 11.6648 4.3295L7.16475 6.5795C7.04019 6.64174 6.93542 6.73743 6.86216 6.85585C6.78891 6.97427 6.75007 7.11075 6.75 7.25V12.0365L2.66475 14.0787C2.54008 14.141 2.43523 14.2369 2.36197 14.3554C2.28871 14.474 2.24994 14.6106 2.25 14.75V20C2.25007 20.1392 2.28891 20.2757 2.36216 20.3941C2.43542 20.5126 2.54019 20.6083 2.66475 20.6705L7.16475 22.9205C7.26887 22.9725 7.38364 22.9995 7.5 22.9995C7.61636 22.9995 7.73113 22.9725 7.83525 22.9205L12 20.8392L16.1647 22.922C16.2689 22.974 16.3836 23.001 16.5 23.001C16.6164 23.001 16.7311 22.974 16.8353 22.922L21.3353 20.672C21.46 20.6096 21.565 20.5137 21.6382 20.395C21.7115 20.2763 21.7502 20.1395 21.75 20V14.75C21.7501 14.6106 21.7113 14.474 21.638 14.3554C21.5648 14.2369 21.4599 14.141 21.3353 14.0787ZM15.75 12.0372L12.75 13.5372V9.96425L15.75 8.46425V12.0372ZM12 5.83925L14.823 7.25L12 8.6615L9.177 7.25L12 5.83925ZM8.25 8.46425L11.25 9.96425V13.5372L8.25 12.0372V8.46425ZM6.75 21.0365L3.75 19.5365V15.9635L6.75 17.4635V21.0365ZM7.5 16.1615L4.677 14.75L7.5 13.3385L10.323 14.75L7.5 16.1615ZM8.25 17.4635L11.25 15.9635V19.5365L8.25 21.0365V17.4635ZM15.75 21.0365L12.75 19.5365V15.9635L15.75 17.4635V21.0365ZM16.5 16.1615L13.677 14.75L16.5 13.3385L19.323 14.75L16.5 16.1615ZM20.25 19.5365L17.25 21.0365V17.4635L20.25 15.9635V19.5365Z" fill="black"/>
</svg>
