<svg width="65" height="65" viewBox="0 0 65 65" fill="none" xmlns="http://www.w3.org/2000/svg">
<path d="M32.5 8.125C37.3209 8.125 42.0336 9.55457 46.042 12.2329C50.0505 14.9113 53.1747 18.7181 55.0196 23.1721C56.8645 27.626 57.3472 32.527 56.4067 37.2553C55.4661 41.9836 53.1446 46.3268 49.7357 49.7357C46.3268 53.1446 41.9836 55.4661 37.2553 56.4066C32.5271 57.3472 27.6261 56.8645 23.1721 55.0196C18.7182 53.1747 14.9113 50.0505 12.2329 46.042C9.55458 42.0336 8.12501 37.3209 8.12501 32.5C8.12501 26.0354 10.6931 19.8355 15.2643 15.2643C19.8355 10.6931 26.0354 8.125 32.5 8.125M32.5 4.0625C26.8756 4.0625 21.3775 5.73033 16.701 8.85508C12.0245 11.9798 8.37956 16.4212 6.22719 21.6174C4.07482 26.8137 3.51166 32.5315 4.60893 38.0479C5.7062 43.5642 8.41461 48.6313 12.3917 52.6084C16.3687 56.5854 21.4358 59.2938 26.9521 60.3911C32.4685 61.4884 38.1863 60.9252 43.3826 58.7728C48.5789 56.6205 53.0202 52.9756 56.1449 48.299C59.2697 43.6225 60.9375 38.1244 60.9375 32.5C60.9375 24.9579 57.9414 17.7247 52.6084 12.3917C47.2753 7.05859 40.0421 4.0625 32.5 4.0625V4.0625Z" fill="#EBEBEB"/>
<path d="M40.625 24.375V40.625H24.375V24.375H40.625ZM40.625 20.3125H24.375C23.2976 20.3125 22.2642 20.7405 21.5024 21.5024C20.7405 22.2642 20.3125 23.2976 20.3125 24.375V40.625C20.3125 41.7024 20.7405 42.7358 21.5024 43.4976C22.2642 44.2595 23.2976 44.6875 24.375 44.6875H40.625C41.7024 44.6875 42.7358 44.2595 43.4976 43.4976C44.2595 42.7358 44.6875 41.7024 44.6875 40.625V24.375C44.6875 23.2976 44.2595 22.2642 43.4976 21.5024C42.7358 20.7405 41.7024 20.3125 40.625 20.3125Z" fill="#EBEBEB"/>
</svg>
