<svg width="65" height="65" viewBox="0 0 65 65" fill="none" xmlns="http://www.w3.org/2000/svg">
<path d="M22.3438 46.7188C21.805 46.7188 21.2884 46.5048 20.9074 46.1238C20.5265 45.7429 20.3125 45.2262 20.3125 44.6875V20.3125C20.3127 19.9664 20.4013 19.6261 20.5699 19.3238C20.7386 19.0216 20.9817 18.7675 21.2761 18.5856C21.5706 18.4036 21.9066 18.3 22.2524 18.2844C22.5981 18.2688 22.9421 18.3419 23.2517 18.4966L47.6267 30.6841C47.9637 30.853 48.247 31.1122 48.445 31.4329C48.643 31.7537 48.7478 32.1231 48.7478 32.5C48.7478 32.8769 48.643 33.2464 48.445 33.5671C48.247 33.8878 47.9637 34.1471 47.6267 34.3159L23.2517 46.5034C22.9698 46.6446 22.659 46.7184 22.3438 46.7188V46.7188ZM24.375 23.5991V41.401L42.1769 32.5L24.375 23.5991Z" fill="#EBEBEB"/>
<path d="M32.5 8.125C37.3209 8.125 42.0336 9.55457 46.042 12.2329C50.0505 14.9113 53.1747 18.7181 55.0196 23.1721C56.8645 27.626 57.3472 32.527 56.4066 37.2553C55.4661 41.9836 53.1446 46.3268 49.7357 49.7357C46.3268 53.1446 41.9836 55.4661 37.2553 56.4066C32.527 57.3472 27.626 56.8645 23.1721 55.0196C18.7181 53.1747 14.9113 50.0505 12.2329 46.042C9.55457 42.0336 8.125 37.3209 8.125 32.5C8.125 26.0354 10.6931 19.8355 15.2643 15.2643C19.8355 10.6931 26.0354 8.125 32.5 8.125M32.5 4.0625C26.8756 4.0625 21.3775 5.73033 16.701 8.85508C12.0244 11.9798 8.37954 16.4212 6.22718 21.6174C4.07481 26.8137 3.51165 32.5315 4.60892 38.0479C5.70619 43.5642 8.41459 48.6313 12.3917 52.6084C16.3687 56.5854 21.4358 59.2938 26.9521 60.3911C32.4685 61.4884 38.1863 60.9252 43.3826 58.7728C48.5788 56.6205 53.0202 52.9756 56.1449 48.299C59.2697 43.6225 60.9375 38.1244 60.9375 32.5C60.9375 24.9579 57.9414 17.7247 52.6084 12.3917C47.2753 7.05859 40.0421 4.0625 32.5 4.0625V4.0625Z" fill="#EBEBEB"/>
</svg>
