<svg width="170" height="73" viewBox="0 0 170 73" fill="none" xmlns="http://www.w3.org/2000/svg">
<rect y="6" width="169.65" height="67" rx="5" fill="#FF0000"/>
<rect width="169.65" height="68" rx="5" fill="#D9D9D9"/>
<path d="M32.3754 18L29.8854 13.725H28.2354V18H26.8704V7.545H30.2454C31.0354 7.545 31.7004 7.68 32.2404 7.95C32.7904 8.22 33.2004 8.585 33.4704 9.045C33.7404 9.505 33.8754 10.03 33.8754 10.62C33.8754 11.34 33.6654 11.975 33.2454 12.525C32.8354 13.075 32.2154 13.44 31.3854 13.62L34.0104 18H32.3754ZM28.2354 12.63H30.2454C30.9854 12.63 31.5404 12.45 31.9104 12.09C32.2804 11.72 32.4654 11.23 32.4654 10.62C32.4654 10 32.2804 9.52 31.9104 9.18C31.5504 8.84 30.9954 8.67 30.2454 8.67H28.2354V12.63ZM43.4964 13.575C43.4964 13.835 43.4814 14.11 43.4514 14.4H36.8814C36.9314 15.21 37.2064 15.845 37.7064 16.305C38.2164 16.755 38.8314 16.98 39.5514 16.98C40.1414 16.98 40.6314 16.845 41.0214 16.575C41.4214 16.295 41.7014 15.925 41.8614 15.465H43.3314C43.1114 16.255 42.6714 16.9 42.0114 17.4C41.3514 17.89 40.5314 18.135 39.5514 18.135C38.7714 18.135 38.0714 17.96 37.4514 17.61C36.8414 17.26 36.3614 16.765 36.0114 16.125C35.6614 15.475 35.4864 14.725 35.4864 13.875C35.4864 13.025 35.6564 12.28 35.9964 11.64C36.3364 11 36.8114 10.51 37.4214 10.17C38.0414 9.82 38.7514 9.645 39.5514 9.645C40.3314 9.645 41.0214 9.815 41.6214 10.155C42.2214 10.495 42.6814 10.965 43.0014 11.565C43.3314 12.155 43.4964 12.825 43.4964 13.575ZM42.0864 13.29C42.0864 12.77 41.9714 12.325 41.7414 11.955C41.5114 11.575 41.1964 11.29 40.7964 11.1C40.4064 10.9 39.9714 10.8 39.4914 10.8C38.8014 10.8 38.2114 11.02 37.7214 11.46C37.2414 11.9 36.9664 12.51 36.8964 13.29H42.0864ZM48.6432 10.905H46.9182V18H45.5532V10.905H44.4882V9.78H45.5532V9.195C45.5532 8.275 45.7882 7.605 46.2582 7.185C46.7382 6.755 47.5032 6.54 48.5532 6.54V7.68C47.9532 7.68 47.5282 7.8 47.2782 8.04C47.0382 8.27 46.9182 8.655 46.9182 9.195V9.78H48.6432V10.905ZM57.7347 13.575C57.7347 13.835 57.7197 14.11 57.6897 14.4H51.1197C51.1697 15.21 51.4447 15.845 51.9447 16.305C52.4547 16.755 53.0697 16.98 53.7897 16.98C54.3797 16.98 54.8697 16.845 55.2597 16.575C55.6597 16.295 55.9397 15.925 56.0997 15.465H57.5697C57.3497 16.255 56.9097 16.9 56.2497 17.4C55.5897 17.89 54.7697 18.135 53.7897 18.135C53.0097 18.135 52.3097 17.96 51.6897 17.61C51.0797 17.26 50.5997 16.765 50.2497 16.125C49.8997 15.475 49.7247 14.725 49.7247 13.875C49.7247 13.025 49.8947 12.28 50.2347 11.64C50.5747 11 51.0497 10.51 51.6597 10.17C52.2797 9.82 52.9897 9.645 53.7897 9.645C54.5697 9.645 55.2597 9.815 55.8597 10.155C56.4597 10.495 56.9197 10.965 57.2397 11.565C57.5697 12.155 57.7347 12.825 57.7347 13.575ZM56.3247 13.29C56.3247 12.77 56.2097 12.325 55.9797 11.955C55.7497 11.575 55.4347 11.29 55.0347 11.1C54.6447 10.9 54.2097 10.8 53.7297 10.8C53.0397 10.8 52.4497 11.02 51.9597 11.46C51.4797 11.9 51.2047 12.51 51.1347 13.29H56.3247ZM60.9015 11.115C61.1415 10.645 61.4815 10.28 61.9215 10.02C62.3715 9.76 62.9165 9.63 63.5565 9.63V11.04H63.1965C61.6665 11.04 60.9015 11.87 60.9015 13.53V18H59.5365V9.78H60.9015V11.115ZM72.6322 13.575C72.6322 13.835 72.6172 14.11 72.5872 14.4H66.0172C66.0672 15.21 66.3422 15.845 66.8422 16.305C67.3522 16.755 67.9672 16.98 68.6872 16.98C69.2772 16.98 69.7672 16.845 70.1572 16.575C70.5572 16.295 70.8372 15.925 70.9972 15.465H72.4672C72.2472 16.255 71.8072 16.9 71.1472 17.4C70.4872 17.89 69.6672 18.135 68.6872 18.135C67.9072 18.135 67.2072 17.96 66.5872 17.61C65.9772 17.26 65.4972 16.765 65.1472 16.125C64.7972 15.475 64.6222 14.725 64.6222 13.875C64.6222 13.025 64.7922 12.28 65.1322 11.64C65.4722 11 65.9472 10.51 66.5572 10.17C67.1772 9.82 67.8872 9.645 68.6872 9.645C69.4672 9.645 70.1572 9.815 70.7572 10.155C71.3572 10.495 71.8172 10.965 72.1372 11.565C72.4672 12.155 72.6322 12.825 72.6322 13.575ZM71.2222 13.29C71.2222 12.77 71.1072 12.325 70.8772 11.955C70.6472 11.575 70.3322 11.29 69.9322 11.1C69.5422 10.9 69.1072 10.8 68.6272 10.8C67.9372 10.8 67.3472 11.02 66.8572 11.46C66.3772 11.9 66.1022 12.51 66.0322 13.29H71.2222ZM78.4389 9.63C79.4389 9.63 80.2489 9.935 80.8689 10.545C81.4889 11.145 81.7989 12.015 81.7989 13.155V18H80.4489V13.35C80.4489 12.53 80.2439 11.905 79.8339 11.475C79.4239 11.035 78.8639 10.815 78.1539 10.815C77.4339 10.815 76.8589 11.04 76.4289 11.49C76.0089 11.94 75.7989 12.595 75.7989 13.455V18H74.4339V9.78H75.7989V10.95C76.0689 10.53 76.4339 10.205 76.8939 9.975C77.3639 9.745 77.8789 9.63 78.4389 9.63ZM83.5186 13.875C83.5186 13.025 83.6886 12.285 84.0286 11.655C84.3686 11.015 84.8386 10.52 85.4386 10.17C86.0486 9.82 86.7436 9.645 87.5236 9.645C88.5336 9.645 89.3636 9.89 90.0136 10.38C90.6737 10.87 91.1087 11.55 91.3186 12.42H89.8487C89.7087 11.92 89.4337 11.525 89.0236 11.235C88.6236 10.945 88.1236 10.8 87.5236 10.8C86.7436 10.8 86.1136 11.07 85.6336 11.61C85.1536 12.14 84.9136 12.895 84.9136 13.875C84.9136 14.865 85.1536 15.63 85.6336 16.17C86.1136 16.71 86.7436 16.98 87.5236 16.98C88.1236 16.98 88.6236 16.84 89.0236 16.56C89.4236 16.28 89.6986 15.88 89.8487 15.36H91.3186C91.0986 16.2 90.6586 16.875 89.9986 17.385C89.3386 17.885 88.5136 18.135 87.5236 18.135C86.7436 18.135 86.0486 17.96 85.4386 17.61C84.8386 17.26 84.3686 16.765 84.0286 16.125C83.6886 15.485 83.5186 14.735 83.5186 13.875ZM100.64 13.575C100.64 13.835 100.625 14.11 100.595 14.4H94.025C94.075 15.21 94.35 15.845 94.85 16.305C95.36 16.755 95.975 16.98 96.695 16.98C97.285 16.98 97.775 16.845 98.165 16.575C98.565 16.295 98.845 15.925 99.005 15.465H100.475C100.255 16.255 99.815 16.9 99.155 17.4C98.495 17.89 97.675 18.135 96.695 18.135C95.915 18.135 95.215 17.96 94.595 17.61C93.985 17.26 93.505 16.765 93.155 16.125C92.805 15.475 92.63 14.725 92.63 13.875C92.63 13.025 92.8 12.28 93.14 11.64C93.48 11 93.955 10.51 94.565 10.17C95.185 9.82 95.895 9.645 96.695 9.645C97.475 9.645 98.165 9.815 98.765 10.155C99.365 10.495 99.825 10.965 100.145 11.565C100.475 12.155 100.64 12.825 100.64 13.575ZM99.23 13.29C99.23 12.77 99.115 12.325 98.885 11.955C98.655 11.575 98.34 11.29 97.94 11.1C97.55 10.9 97.115 10.8 96.635 10.8C95.945 10.8 95.355 11.02 94.865 11.46C94.385 11.9 94.11 12.51 94.04 13.29H99.23Z" fill="black"/>
<path d="M8.22546 17C8.22546 17.5304 8.00881 18.0391 7.62316 18.4142C7.23752 18.7893 6.71448 19 6.1691 19C5.62371 19 5.10067 18.7893 4.71503 18.4142C4.32938 18.0391 4.11273 17.5304 4.11273 17C4.11273 16.4696 4.32938 15.9609 4.71503 15.5858C5.10067 15.2107 5.62371 15 6.1691 15C6.71448 15 7.23752 15.2107 7.62316 15.5858C8.00881 15.9609 8.22546 16.4696 8.22546 17Z" fill="black"/>
<path fill-rule="evenodd" clip-rule="evenodd" d="M12.3382 12C12.0678 12 11.8241 12.198 11.8241 12.461V21.5C11.8241 21.6326 11.8783 21.7598 11.9747 21.8536C12.0711 21.9473 12.2018 22 12.3382 22C12.4745 22 12.6053 21.9473 12.7017 21.8536C12.7981 21.7598 12.8523 21.6326 12.8523 21.5V12.461C12.8523 12.198 12.6086 12 12.3382 12ZM11.8241 8.5C11.8241 8.776 12.0678 9 12.3515 9C12.6358 9 12.8523 8.776 12.8523 8.5V4.5C12.8523 4.36739 12.7981 4.24021 12.7017 4.14645C12.6053 4.05268 12.4745 4 12.3382 4C12.2018 4 12.0711 4.05268 11.9747 4.14645C11.8783 4.24021 11.8241 4.36739 11.8241 4.5V8.5ZM18.5073 17.5C18.2369 17.5 17.9932 17.698 17.9932 17.961V21.5C17.9932 21.6326 18.0473 21.7598 18.1438 21.8536C18.2402 21.9473 18.3709 22 18.5073 22C18.6436 22 18.7744 21.9473 18.8708 21.8536C18.9672 21.7598 19.0214 21.6326 19.0214 21.5V17.961C19.0214 17.698 18.7777 17.5 18.5073 17.5ZM17.9932 14C17.9932 14.276 18.2369 14.5 18.5206 14.5C18.8049 14.5 19.0214 14.276 19.0214 14V4.5C19.0214 4.36739 18.9672 4.24021 18.8708 4.14645C18.7744 4.05268 18.6436 4 18.5073 4C18.3709 4 18.2402 4.05268 18.1438 4.14645C18.0473 4.24021 17.9932 4.36739 17.9932 4.5V14ZM6.16909 20C5.89868 20 5.655 20.198 5.655 20.461V21.5C5.655 21.6326 5.70916 21.7598 5.80557 21.8536C5.90198 21.9473 6.03274 22 6.16909 22C6.30544 22 6.4362 21.9473 6.53261 21.8536C6.62902 21.7598 6.68318 21.6326 6.68318 21.5V20.461C6.68318 20.198 6.4395 20 6.16909 20ZM5.655 16.5C5.655 16.776 5.89868 17 6.18246 17C6.46675 17 6.68318 16.776 6.68318 16.5V4.5C6.68318 4.36739 6.62902 4.24021 6.53261 4.14645C6.4362 4.05268 6.30544 4 6.16909 4C6.03274 4 5.90198 4.05268 5.80557 4.14645C5.70916 4.24021 5.655 4.36739 5.655 4.5V16.5Z" fill="black"/>
<path d="M14.3946 9C14.3946 9.53043 14.1779 10.0391 13.7923 10.4142C13.4066 10.7893 12.8836 11 12.3382 11C11.7928 11 11.2698 10.7893 10.8841 10.4142C10.4985 10.0391 10.2818 9.53043 10.2818 9C10.2818 8.46957 10.4985 7.96086 10.8841 7.58579C11.2698 7.21071 11.7928 7 12.3382 7C12.8836 7 13.4066 7.21071 13.7923 7.58579C14.1779 7.96086 14.3946 8.46957 14.3946 9V9ZM20.5636 14.5C20.5636 15.0304 20.347 15.5391 19.9614 15.9142C19.5757 16.2893 19.0527 16.5 18.5073 16.5C17.9619 16.5 17.4389 16.2893 17.0532 15.9142C16.6676 15.5391 16.4509 15.0304 16.4509 14.5C16.4509 13.9696 16.6676 13.4609 17.0532 13.0858C17.4389 12.7107 17.9619 12.5 18.5073 12.5C19.0527 12.5 19.5757 12.7107 19.9614 13.0858C20.347 13.4609 20.5636 13.9696 20.5636 14.5Z" fill="black"/>
</svg>
