<svg width="170" height="73" viewBox="0 0 170 73" fill="none" xmlns="http://www.w3.org/2000/svg">
<rect y="6" width="169.65" height="67" rx="5" fill="#FF0000"/>
<rect width="169.65" height="68" rx="5" fill="#818181"/>
<path d="M32.3755 18L29.8855 13.725H28.2355V18H26.8705V7.545H30.2455C31.0355 7.545 31.7005 7.68 32.2405 7.95C32.7905 8.22 33.2005 8.585 33.4705 9.045C33.7405 9.505 33.8755 10.03 33.8755 10.62C33.8755 11.34 33.6655 11.975 33.2455 12.525C32.8355 13.075 32.2155 13.44 31.3855 13.62L34.0105 18H32.3755ZM28.2355 12.63H30.2455C30.9855 12.63 31.5405 12.45 31.9105 12.09C32.2805 11.72 32.4655 11.23 32.4655 10.62C32.4655 10 32.2805 9.52 31.9105 9.18C31.5505 8.84 30.9955 8.67 30.2455 8.67H28.2355V12.63ZM43.4965 13.575C43.4965 13.835 43.4815 14.11 43.4515 14.4H36.8815C36.9315 15.21 37.2065 15.845 37.7065 16.305C38.2165 16.755 38.8315 16.98 39.5515 16.98C40.1415 16.98 40.6315 16.845 41.0215 16.575C41.4215 16.295 41.7015 15.925 41.8615 15.465H43.3315C43.1115 16.255 42.6715 16.9 42.0115 17.4C41.3515 17.89 40.5315 18.135 39.5515 18.135C38.7715 18.135 38.0715 17.96 37.4515 17.61C36.8415 17.26 36.3615 16.765 36.0115 16.125C35.6615 15.475 35.4865 14.725 35.4865 13.875C35.4865 13.025 35.6565 12.28 35.9965 11.64C36.3365 11 36.8115 10.51 37.4215 10.17C38.0415 9.82 38.7515 9.645 39.5515 9.645C40.3315 9.645 41.0215 9.815 41.6215 10.155C42.2215 10.495 42.6815 10.965 43.0015 11.565C43.3315 12.155 43.4965 12.825 43.4965 13.575ZM42.0865 13.29C42.0865 12.77 41.9715 12.325 41.7415 11.955C41.5115 11.575 41.1965 11.29 40.7965 11.1C40.4065 10.9 39.9715 10.8 39.4915 10.8C38.8015 10.8 38.2115 11.02 37.7215 11.46C37.2415 11.9 36.9665 12.51 36.8965 13.29H42.0865ZM48.6432 10.905H46.9182V18H45.5532V10.905H44.4882V9.78H45.5532V9.195C45.5532 8.275 45.7882 7.605 46.2582 7.185C46.7382 6.755 47.5032 6.54 48.5532 6.54V7.68C47.9532 7.68 47.5282 7.8 47.2782 8.04C47.0382 8.27 46.9182 8.655 46.9182 9.195V9.78H48.6432V10.905ZM57.7347 13.575C57.7347 13.835 57.7197 14.11 57.6897 14.4H51.1197C51.1697 15.21 51.4447 15.845 51.9447 16.305C52.4547 16.755 53.0697 16.98 53.7897 16.98C54.3797 16.98 54.8697 16.845 55.2597 16.575C55.6597 16.295 55.9397 15.925 56.0997 15.465H57.5697C57.3497 16.255 56.9097 16.9 56.2497 17.4C55.5897 17.89 54.7697 18.135 53.7897 18.135C53.0097 18.135 52.3097 17.96 51.6897 17.61C51.0797 17.26 50.5997 16.765 50.2497 16.125C49.8997 15.475 49.7247 14.725 49.7247 13.875C49.7247 13.025 49.8947 12.28 50.2347 11.64C50.5747 11 51.0497 10.51 51.6597 10.17C52.2797 9.82 52.9897 9.645 53.7897 9.645C54.5697 9.645 55.2597 9.815 55.8597 10.155C56.4597 10.495 56.9197 10.965 57.2397 11.565C57.5697 12.155 57.7347 12.825 57.7347 13.575ZM56.3247 13.29C56.3247 12.77 56.2097 12.325 55.9797 11.955C55.7497 11.575 55.4347 11.29 55.0347 11.1C54.6447 10.9 54.2097 10.8 53.7297 10.8C53.0397 10.8 52.4497 11.02 51.9597 11.46C51.4797 11.9 51.2047 12.51 51.1347 13.29H56.3247ZM60.9015 11.115C61.1415 10.645 61.4815 10.28 61.9215 10.02C62.3715 9.76 62.9165 9.63 63.5565 9.63V11.04H63.1965C61.6665 11.04 60.9015 11.87 60.9015 13.53V18H59.5365V9.78H60.9015V11.115ZM72.6322 13.575C72.6322 13.835 72.6172 14.11 72.5872 14.4H66.0172C66.0672 15.21 66.3422 15.845 66.8422 16.305C67.3522 16.755 67.9672 16.98 68.6872 16.98C69.2772 16.98 69.7672 16.845 70.1572 16.575C70.5572 16.295 70.8372 15.925 70.9972 15.465H72.4672C72.2472 16.255 71.8072 16.9 71.1472 17.4C70.4872 17.89 69.6672 18.135 68.6872 18.135C67.9072 18.135 67.2072 17.96 66.5872 17.61C65.9772 17.26 65.4972 16.765 65.1472 16.125C64.7972 15.475 64.6222 14.725 64.6222 13.875C64.6222 13.025 64.7922 12.28 65.1322 11.64C65.4722 11 65.9472 10.51 66.5572 10.17C67.1772 9.82 67.8872 9.645 68.6872 9.645C69.4672 9.645 70.1572 9.815 70.7572 10.155C71.3572 10.495 71.8172 10.965 72.1372 11.565C72.4672 12.155 72.6322 12.825 72.6322 13.575ZM71.2222 13.29C71.2222 12.77 71.1072 12.325 70.8772 11.955C70.6472 11.575 70.3322 11.29 69.9322 11.1C69.5422 10.9 69.1072 10.8 68.6272 10.8C67.9372 10.8 67.3472 11.02 66.8572 11.46C66.3772 11.9 66.1022 12.51 66.0322 13.29H71.2222ZM78.439 9.63C79.439 9.63 80.249 9.935 80.869 10.545C81.489 11.145 81.799 12.015 81.799 13.155V18H80.449V13.35C80.449 12.53 80.244 11.905 79.834 11.475C79.424 11.035 78.864 10.815 78.154 10.815C77.434 10.815 76.859 11.04 76.429 11.49C76.009 11.94 75.799 12.595 75.799 13.455V18H74.434V9.78H75.799V10.95C76.069 10.53 76.434 10.205 76.894 9.975C77.364 9.745 77.879 9.63 78.439 9.63ZM83.5187 13.875C83.5187 13.025 83.6887 12.285 84.0287 11.655C84.3687 11.015 84.8387 10.52 85.4387 10.17C86.0487 9.82 86.7437 9.645 87.5237 9.645C88.5337 9.645 89.3637 9.89 90.0137 10.38C90.6737 10.87 91.1087 11.55 91.3187 12.42H89.8487C89.7087 11.92 89.4337 11.525 89.0237 11.235C88.6237 10.945 88.1237 10.8 87.5237 10.8C86.7437 10.8 86.1137 11.07 85.6337 11.61C85.1537 12.14 84.9137 12.895 84.9137 13.875C84.9137 14.865 85.1537 15.63 85.6337 16.17C86.1137 16.71 86.7437 16.98 87.5237 16.98C88.1237 16.98 88.6237 16.84 89.0237 16.56C89.4237 16.28 89.6987 15.88 89.8487 15.36H91.3187C91.0987 16.2 90.6587 16.875 89.9987 17.385C89.3387 17.885 88.5137 18.135 87.5237 18.135C86.7437 18.135 86.0487 17.96 85.4387 17.61C84.8387 17.26 84.3687 16.765 84.0287 16.125C83.6887 15.485 83.5187 14.735 83.5187 13.875ZM100.64 13.575C100.64 13.835 100.625 14.11 100.595 14.4H94.025C94.075 15.21 94.35 15.845 94.85 16.305C95.36 16.755 95.975 16.98 96.695 16.98C97.285 16.98 97.775 16.845 98.165 16.575C98.565 16.295 98.845 15.925 99.005 15.465H100.475C100.255 16.255 99.815 16.9 99.155 17.4C98.495 17.89 97.675 18.135 96.695 18.135C95.915 18.135 95.215 17.96 94.595 17.61C93.985 17.26 93.505 16.765 93.155 16.125C92.805 15.475 92.63 14.725 92.63 13.875C92.63 13.025 92.8 12.28 93.14 11.64C93.48 11 93.955 10.51 94.565 10.17C95.185 9.82 95.895 9.645 96.695 9.645C97.475 9.645 98.165 9.815 98.765 10.155C99.365 10.495 99.825 10.965 100.145 11.565C100.475 12.155 100.64 12.825 100.64 13.575ZM99.23 13.29C99.23 12.77 99.115 12.325 98.885 11.955C98.655 11.575 98.34 11.29 97.94 11.1C97.55 10.9 97.115 10.8 96.635 10.8C95.945 10.8 95.355 11.02 94.865 11.46C94.385 11.9 94.11 12.51 94.04 13.29H99.23Z" fill="black"/>
<path d="M8.22546 17C8.22546 17.5304 8.00881 18.0391 7.62316 18.4142C7.23752 18.7893 6.71448 19 6.1691 19C5.62371 19 5.10067 18.7893 4.71503 18.4142C4.32938 18.0391 4.11273 17.5304 4.11273 17C4.11273 16.4696 4.32938 15.9609 4.71503 15.5858C5.10067 15.2107 5.62371 15 6.1691 15C6.71448 15 7.23752 15.2107 7.62316 15.5858C8.00881 15.9609 8.22546 16.4696 8.22546 17Z" fill="black"/>
<path fill-rule="evenodd" clip-rule="evenodd" d="M12.3382 12C12.0678 12 11.8241 12.198 11.8241 12.461V21.5C11.8241 21.6326 11.8783 21.7598 11.9747 21.8536C12.0711 21.9473 12.2019 22 12.3382 22C12.4746 22 12.6053 21.9473 12.7017 21.8536C12.7981 21.7598 12.8523 21.6326 12.8523 21.5V12.461C12.8523 12.198 12.6086 12 12.3382 12ZM11.8241 8.5C11.8241 8.776 12.0678 9 12.3516 9C12.6359 9 12.8523 8.776 12.8523 8.5V4.5C12.8523 4.36739 12.7981 4.24021 12.7017 4.14645C12.6053 4.05268 12.4746 4 12.3382 4C12.2019 4 12.0711 4.05268 11.9747 4.14645C11.8783 4.24021 11.8241 4.36739 11.8241 4.5V8.5ZM18.5073 17.5C18.2369 17.5 17.9932 17.698 17.9932 17.961V21.5C17.9932 21.6326 18.0474 21.7598 18.1438 21.8536C18.2402 21.9473 18.371 22 18.5073 22C18.6436 22 18.7744 21.9473 18.8708 21.8536C18.9672 21.7598 19.0214 21.6326 19.0214 21.5V17.961C19.0214 17.698 18.7777 17.5 18.5073 17.5ZM17.9932 14C17.9932 14.276 18.2369 14.5 18.5207 14.5C18.805 14.5 19.0214 14.276 19.0214 14V4.5C19.0214 4.36739 18.9672 4.24021 18.8708 4.14645C18.7744 4.05268 18.6436 4 18.5073 4C18.371 4 18.2402 4.05268 18.1438 4.14645C18.0474 4.24021 17.9932 4.36739 17.9932 4.5V14ZM6.16912 20C5.89871 20 5.65503 20.198 5.65503 20.461V21.5C5.65503 21.6326 5.70919 21.7598 5.8056 21.8536C5.90201 21.9473 6.03277 22 6.16912 22C6.30547 22 6.43623 21.9473 6.53264 21.8536C6.62905 21.7598 6.68321 21.6326 6.68321 21.5V20.461C6.68321 20.198 6.43953 20 6.16912 20ZM5.65503 16.5C5.65503 16.776 5.89871 17 6.18249 17C6.46678 17 6.68321 16.776 6.68321 16.5V4.5C6.68321 4.36739 6.62905 4.24021 6.53264 4.14645C6.43623 4.05268 6.30547 4 6.16912 4C6.03277 4 5.90201 4.05268 5.8056 4.14645C5.70919 4.24021 5.65503 4.36739 5.65503 4.5V16.5Z" fill="black"/>
<path d="M14.3945 9C14.3945 9.53043 14.1779 10.0391 13.7922 10.4142C13.4066 10.7893 12.8835 11 12.3382 11C11.7928 11 11.2697 10.7893 10.8841 10.4142C10.4985 10.0391 10.2818 9.53043 10.2818 9C10.2818 8.46957 10.4985 7.96086 10.8841 7.58579C11.2697 7.21071 11.7928 7 12.3382 7C12.8835 7 13.4066 7.21071 13.7922 7.58579C14.1779 7.96086 14.3945 8.46957 14.3945 9V9ZM20.5636 14.5C20.5636 15.0304 20.347 15.5391 19.9613 15.9142C19.5757 16.2893 19.0526 16.5 18.5073 16.5C17.9619 16.5 17.4388 16.2893 17.0532 15.9142C16.6675 15.5391 16.4509 15.0304 16.4509 14.5C16.4509 13.9696 16.6675 13.4609 17.0532 13.0858C17.4388 12.7107 17.9619 12.5 18.5073 12.5C19.0526 12.5 19.5757 12.7107 19.9613 13.0858C20.347 13.4609 20.5636 13.9696 20.5636 14.5Z" fill="black"/>
</svg>
