<svg width="65" height="65" viewBox="0 0 65 65" fill="none" xmlns="http://www.w3.org/2000/svg">
<path d="M32.5 4.0625C16.7959 4.0625 4.0625 16.7959 4.0625 32.5C4.0625 48.2041 16.7959 60.9375 32.5 60.9375C48.2041 60.9375 60.9375 48.2041 60.9375 32.5C60.9375 16.7959 48.2041 4.0625 32.5 4.0625ZM32.5 56.1133C19.4619 56.1133 8.88672 45.5381 8.88672 32.5C8.88672 19.4619 19.4619 8.88672 32.5 8.88672C45.5381 8.88672 56.1133 19.4619 56.1133 32.5C56.1133 45.5381 45.5381 56.1133 32.5 56.1133ZM26.9141 22.3438H23.8672C23.5879 22.3438 23.3594 22.5723 23.3594 22.8516V42.1484C23.3594 42.4277 23.5879 42.6562 23.8672 42.6562H26.9141C27.1934 42.6562 27.4219 42.4277 27.4219 42.1484V22.8516C27.4219 22.5723 27.1934 22.3438 26.9141 22.3438ZM41.1328 22.3438H38.0859C37.8066 22.3438 37.5781 22.5723 37.5781 22.8516V42.1484C37.5781 42.4277 37.8066 42.6562 38.0859 42.6562H41.1328C41.4121 42.6562 41.6406 42.4277 41.6406 42.1484V22.8516C41.6406 22.5723 41.4121 22.3438 41.1328 22.3438Z" fill="#838383"/>
</svg>
